<?xml version="1.0" encoding="iso-8859-1"?>
<!-- Generator: Adobe Illustrator 19.0.0, SVG Export Plug-In . SVG Version: 6.00 Build 0)  -->
<svg version="1.1" id="Capa_1" xmlns="http://www.w3.org/2000/svg" xmlns:xlink="http://www.w3.org/1999/xlink" x="0px" y="0px"
	 viewBox="0 0 512 512" style="enable-background:new 0 0 512 512;" xml:space="preserve">
<g>
	<g>
		<path d="M256,0c-68.925,0-125,56.075-125,125s56.075,125,125,125s125-56.075,125-125S324.925,0,256,0z M256,220
			c-52.383,0-95-42.617-95-95s42.617-95,95-95s95,42.617,95,95S308.383,220,256,220z" fill="#FFF"/>
	</g>
</g>
<g>
	<g>
		<path d="M453.716,447.961C438.977,351.019,355.583,280,257.6,280h-3.888c-97.756,0-180.761,71.49-195.429,167.961L48.547,512
			h414.906L453.716,447.961z M241,482H83.453l4.49-29.529c8.541-56.173,45.231-105.152,98.771-128.487L241,407.928V482z
			 M216.159,314.269c12.238-2.814,24.832-4.269,37.554-4.269h3.887c12.947,0,25.753,1.487,38.185,4.357L256,375.877L216.159,314.269
			z M271,482.001L271,482.001v-74.073l54.229-83.855c53.81,23.417,90.319,72.427,98.828,128.399l4.49,29.529H271z" fill="#FFF"/>
	</g>
</g>
<g>
</g>
<g>
</g>
<g>
</g>
<g>
</g>
<g>
</g>
<g>
</g>
<g>
</g>
<g>
</g>
<g>
</g>
<g>
</g>
<g>
</g>
<g>
</g>
<g>
</g>
<g>
</g>
<g>
</g>
</svg>
