<svg id="Capa_1" enable-background="new 0 0 512 512" height="512" viewBox="0 0 512 512" width="512" xmlns="http://www.w3.org/2000/svg"><g><g>
<path d="m145.074 212.929h-82.976c-4.142 0-7.5 3.357-7.5 7.5s3.358 7.5 7.5 7.5h82.976c4.142 0 7.5-3.357 7.5-7.5s-3.358-7.5-7.5-7.5z" fill="#FFF"/>
<path d="m145.074 175.65h-82.976c-4.142 0-7.5 3.357-7.5 7.5s3.358 7.5 7.5 7.5h82.976c4.142 0 7.5-3.357 7.5-7.5s-3.358-7.5-7.5-7.5z" fill="#FFF"/>
<path d="m493.896 328.34c-1.331 0-2.506-.836-2.926-2.078-1.428-4.232-3.159-8.408-5.144-12.412-.587-1.187-.351-2.616.594-3.561 7.058-7.059 7.058-18.544 0-25.604l-17.028-17.027c-7.059-7.057-18.543-7.059-25.606.004-.941.941-2.37 1.178-3.556.591-4.006-1.986-8.183-3.717-12.411-5.144-1.245-.42-2.081-1.597-2.081-2.927 0-9.982-8.122-18.104-18.104-18.104h-24.081c-9.982 0-18.104 8.122-18.104 18.104 0 1.33-.836 2.507-2.078 2.926-4.23 1.428-8.407 3.158-12.413 5.144-1.185.59-2.615.352-3.56-.594-7.058-7.057-18.543-7.057-25.602 0l-17.028 17.028c-7.058 7.059-7.058 18.544.004 25.606.94.94 1.178 2.369.59 3.556-1.985 4.006-3.715 8.183-5.143 12.411-.42 1.244-1.597 2.08-2.927 2.08-9.982 0-18.104 8.121-18.104 18.104v24.08c0 9.982 8.122 18.104 18.104 18.104 1.33 0 2.506.836 2.926 2.079 1.428 4.229 3.159 8.404 5.144 12.412.588 1.186.35 2.615-.593 3.559-7.076 7.074-7.077 18.528 0 25.604l17.027 17.026c7.075 7.076 18.525 7.079 25.605-.002.941-.941 2.371-1.18 3.558-.59 4.006 1.984 8.182 3.715 12.411 5.143 1.243.42 2.079 1.597 2.079 2.927 0 9.982 8.122 18.104 18.104 18.104h24.081c9.982 0 18.104-8.121 18.104-18.104 0-1.33.835-2.507 2.08-2.927 4.229-1.428 8.405-3.158 12.413-5.144 1.185-.589 2.614-.35 3.558.593 7.075 7.076 18.527 7.078 25.603.001l17.027-17.027c7.074-7.072 7.079-18.526-.002-25.605-.941-.941-1.179-2.371-.591-3.557 1.985-4.006 3.715-8.182 5.144-12.412.42-1.243 1.596-2.079 2.926-2.079 9.982 0 18.104-8.122 18.104-18.104v-24.08c0-9.983-8.122-18.104-18.104-18.104zm3.104 42.183c0 1.712-1.393 3.104-3.104 3.104-7.771 0-14.658 4.936-17.138 12.28-1.214 3.596-2.685 7.146-4.373 10.551-3.448 6.958-2.072 15.325 3.428 20.826 1.211 1.211 1.213 3.176 0 4.389l-17.028 17.028c-1.206 1.206-3.169 1.22-4.393-.004-5.497-5.498-13.866-6.873-20.821-3.424-3.406 1.688-6.957 3.158-10.552 4.373-7.345 2.479-12.28 9.367-12.28 17.138 0 1.711-1.393 3.104-3.104 3.104h-24.081c-1.711 0-3.104-1.393-3.104-3.104 0-7.771-4.935-14.658-12.279-17.138-3.596-1.215-7.146-2.686-10.55-4.372-2.555-1.267-5.3-1.883-8.024-1.883-4.693 0-9.322 1.829-12.803 5.31-1.206 1.206-3.171 1.218-4.389-.001l-17.028-17.027c-1.201-1.201-1.224-3.164.003-4.393 5.496-5.496 6.872-13.864 3.424-20.821-1.688-3.407-3.159-6.957-4.373-10.553-2.48-7.345-9.368-12.279-17.138-12.279-1.711 0-3.104-1.393-3.104-3.104v-24.08c0-1.711 1.393-3.104 3.104-3.104 7.769 0 14.656-4.935 17.138-12.281 1.214-3.595 2.685-7.145 4.372-10.55 3.448-6.96 2.072-15.328-3.427-20.825-1.21-1.211-1.21-3.181 0-4.391l17.027-17.027c1.211-1.211 3.181-1.21 4.393.002 5.497 5.497 13.864 6.874 20.823 3.425 3.406-1.688 6.955-3.158 10.552-4.372 7.344-2.481 12.278-9.369 12.278-17.138 0-1.712 1.393-3.104 3.104-3.104h24.081c1.711 0 3.104 1.393 3.104 3.104 0 7.769 4.935 14.656 12.281 17.139 3.595 1.213 7.144 2.684 10.55 4.372 6.958 3.447 15.327 2.071 20.826-3.428 1.21-1.211 3.18-1.211 4.39 0l17.027 17.026c1.21 1.211 1.21 3.181-.002 4.394-5.497 5.496-6.873 13.863-3.425 20.824 1.687 3.403 3.158 6.953 4.372 10.55 2.481 7.346 9.368 12.28 17.138 12.28 1.711 0 3.104 1.393 3.104 3.104v24.08z" fill="#FFF"/><path d="m395.595 307.319c-28.212 0-51.164 22.952-51.164 51.164s22.952 51.164 51.164 51.164 51.164-22.952 51.164-51.164-22.952-51.164-51.164-51.164zm0 87.328c-19.941 0-36.164-16.224-36.164-36.164s16.223-36.164 36.164-36.164 36.164 16.224 36.164 36.164-16.223 36.164-36.164 36.164z" fill="#FFF"/><path d="m273.844 420.413c-.001 0-.002 0-.002 0l-239.506.08c-.002 0-.004 0-.006 0-10.681 0-19.329-8.644-19.329-19.33v-247.134c0-10.658 8.671-19.33 19.33-19.33h230.761c13.397 0 25.652-7.873 31.222-20.057l23.416-51.221c3.136-6.858 10.036-11.292 17.577-11.293l106.32-.018h.004c10.68 0 19.328 8.643 19.329 19.329l.017 169.669c0 4.142 3.358 7.499 7.501 7.499 4.142 0 7.5-3.358 7.499-7.501l-.017-169.669c-.002-18.969-15.351-34.327-34.329-34.327-.002 0-.005 0-.007 0l-106.32.018c-13.394.003-25.647 7.875-31.217 20.057l-3.982 8.71-267.765-.073c-.003 0-.006 0-.009 0-18.97 0-34.331 15.35-34.331 34.33v301.011c0 18.969 15.349 34.33 34.329 34.33h.011l239.506-.08c4.142-.001 7.499-3.36 7.498-7.503-.002-4.14-3.359-7.497-7.5-7.497zm-239.513-339.591h.005l260.912.072-12.577 27.512c-3.136 6.86-10.037 11.293-17.58 11.293h-230.761c-7.164 0-13.82 2.209-19.33 5.977v-25.524c0-10.682 8.644-19.33 19.331-19.33z" fill="#FFF"/></g></g></svg>
