<svg id="Capa_1" enable-background="new 0 0 512 512" height="512" viewBox="0 0 512 512" width="512" xmlns="http://www.w3.org/2000/svg"><g><path d="m37.5 351c-4.143 0-7.5 3.358-7.5 7.5v85c0 6.893 5.607 12.5 12.5 12.5h427c6.893 0 12.5-5.607 12.5-12.5v-315c0-6.893-5.607-12.5-12.5-12.5h-427c-6.893 0-12.5 5.607-12.5 12.5v195c0 4.142 3.357 7.5 7.5 7.5s7.5-3.358 7.5-7.5v-192.5h422v310h-422v-82.5c0-4.142-3.357-7.5-7.5-7.5z"/><path d="m452.003 158.5c0-6.893-5.607-12.5-12.5-12.5h-366.503c-6.893 0-12.5 5.607-12.5 12.5v66c0 6.893 5.607 12.5 12.5 12.5h366.503c6.893 0 12.5-5.607 12.5-12.5zm-15 63.5h-361.503v-61h361.503z"/><path d="m439.513 381h-90.025c-6.886 0-12.487 5.602-12.487 12.487v20.025c0 6.886 5.602 12.487 12.487 12.487h90.025c6.886 0 12.487-5.602 12.487-12.487v-20.025c0-6.885-5.602-12.487-12.487-12.487zm-2.513 30h-85v-15h85z"/><path d="m452 264.487c0-6.886-5.602-12.487-12.487-12.487h-90.025c-6.886 0-12.487 5.602-12.487 12.487v89.025c0 6.886 5.602 12.487 12.487 12.487h90.025c6.886 0 12.487-5.602 12.487-12.487zm-15 86.513h-85v-84h85z"/><path d="m60 413.513c0 6.885 5.602 12.487 12.487 12.487h90.025c6.886 0 12.487-5.602 12.487-12.487v-20.025c0-6.886-5.602-12.487-12.487-12.487h-90.025c-6.885-.001-12.487 5.601-12.487 12.486zm15-17.513h85v15h-85z"/><path d="m60 353.513c0 6.885 5.602 12.487 12.487 12.487h90.025c6.886 0 12.487-5.602 12.487-12.487v-89.025c0-6.886-5.602-12.487-12.487-12.487h-90.025c-6.885-.001-12.487 5.601-12.487 12.486zm15-86.513h85v84h-85z"/><path d="m202.5 252c-6.893 0-12.5 5.607-12.5 12.5v149c0 6.893 5.607 12.5 12.5 12.5h107c6.893 0 12.5-5.607 12.5-12.5v-149c0-6.893-5.607-12.5-12.5-12.5zm104.5 159h-102v-144h102z"/><path d="m474.5 86h-22.497v-22.5c0-20.678-16.822-37.5-37.5-37.5h-30c-20.678 0-37.5 16.822-37.5 37.5v30c0 4.142 3.357 7.5 7.5 7.5h119.997c12.406 0 22.5 10.093 22.5 22.5v325c0 12.407-10.094 22.5-22.5 22.5h-437c-12.406 0-22.5-10.093-22.5-22.5v-325c0-12.407 10.094-22.5 22.5-22.5h282.003c4.143 0 7.5-3.358 7.5-7.5s-3.357-7.5-7.5-7.5h-154.003v-22.5c0-20.678-16.822-37.5-37.5-37.5h-30c-20.678 0-37.5 16.822-37.5 37.5v22.5h-23c-20.678 0-37.5 16.822-37.5 37.5v325c0 20.678 16.822 37.5 37.5 37.5h437c20.678 0 37.5-16.822 37.5-37.5v-325c0-20.678-16.822-37.5-37.5-37.5zm-67.497 0h-15v-15h15zm30 0h-15v-17.5c0-6.893-5.607-12.5-12.5-12.5h-20c-6.893 0-12.5 5.607-12.5 12.5v17.5h-15v-22.5c0-12.407 10.094-22.5 22.5-22.5h30c12.406 0 22.5 10.093 22.5 22.5zm-316.503 0h-15v-15h15zm-45-22.5c0-12.407 10.094-22.5 22.5-22.5h30c12.406 0 22.5 10.093 22.5 22.5v22.5h-15v-17.5c0-6.893-5.607-12.5-12.5-12.5h-20c-6.893 0-12.5 5.607-12.5 12.5v17.5h-15z"/><path d="m230.5 396h51c5.79 0 10.5-4.71 10.5-10.5v-93c0-5.79-4.71-10.5-10.5-10.5h-51c-5.79 0-10.5 4.71-10.5 10.5v93c0 5.79 4.71 10.5 10.5 10.5zm4.5-99h42v84h-42z"/><path d="m374.5 316.5h40c4.143 0 7.5-3.358 7.5-7.5s-3.357-7.5-7.5-7.5h-40c-4.143 0-7.5 3.358-7.5 7.5s3.357 7.5 7.5 7.5z"/><path d="m137.5 301.5h-40c-4.143 0-7.5 3.358-7.5 7.5s3.357 7.5 7.5 7.5h40c4.143 0 7.5-3.358 7.5-7.5s-3.357-7.5-7.5-7.5z"/></g></svg>
