<svg xmlns="http://www.w3.org/2000/svg" viewBox="0 0 417.02 121.58"><defs><style>.cls-1{fill:#51c3c3;fill-rule:evenodd}.cls-2{fill:#838383}</style></defs><title>logo</title><g id="Слой_2" data-name="Слой 2"><g id="_1" data-name="1"><path class="cls-1" d="M53 52.51a5.34 5.34 0 0 0 2.37 1.65.64.64 0 0 0 .82-.81C55.87 52.09 56.07 51 55 50a3.27 3.27 0 0 0-2.61-.9c-.89.06.43 3.17.59 3.41zM60.8 0q2.7 0 5.33.24A7.43 7.43 0 0 0 65.36 4c.15 1.2 2.19 5.28 3.41 3.72a5.42 5.42 0 0 0 1.56-3.87A10.2 10.2 0 0 0 69.27.59q1.45.2 2.87.47A7.82 7.82 0 0 0 72 2.47c-.09 3.41 2.12 4.65 4.31 6.77a.86.86 0 0 0 .45.24 1 1 0 0 0 1.09-.32 9.16 9.16 0 0 0 2.8-5.85q1.82.63 3.58 1.36c-1.14 2.22-3.09 4-3.52 6.55a7.28 7.28 0 0 0 2.23 6.38.8.8 0 0 0 1.28-.14 1.13 1.13 0 0 0 .42-.48c1.12-2.34 3.34-4.1 3.78-6.76a7.74 7.74 0 0 0-.5-3.87q1.77.88 3.48 1.88a6.14 6.14 0 0 0-.9 5.38.73.73 0 0 0 0 .09 1.11 1.11 0 0 0 1.62.69 9.77 9.77 0 0 0 4-2.91l.07-.1q1.38 1 2.71 2.06c-2.2 1.39-4 3.2-4.13 6.06a1.33 1.33 0 0 0 0 .3.78.78 0 0 0 .11.4 1.11 1.11 0 0 0 1.64.57c1.94-1 4.41-1 6.07-2.5a4.34 4.34 0 0 0 .75-.92 61.11 61.11 0 0 1 7.66 9.16 14.41 14.41 0 0 0-1.31 3.1c-.23.73.79 1.39 1.32.79a4.23 4.23 0 0 1 1.85-1q1 1.6 1.84 3.27a20.21 20.21 0 0 0-4.79 1c-2.29 1-6.16 6.26-3.36 6 3-.29 6.58-.44 9.32-1.71a5.58 5.58 0 0 0 1-.61q.68 1.63 1.27 3.31a8.71 8.71 0 0 0-3.44-.22c-1.3.22-6.49 2.75-4.73 4a9.45 9.45 0 0 0 6.44 1.5 8.59 8.59 0 0 0 2.94-.82l.16-.08a60.61 60.61 0 0 1 1.31 6.18 9.3 9.3 0 0 0-3.24 0c-1.93.39-7 4.9-4.51 5 2.79.13 5.56 1.29 8.38.83.07 1.23.12 2.47.12 3.71V61a5.57 5.57 0 0 0-4.17 1.29.88.88 0 0 0-.15 1 .76.76 0 0 0 .42.58c1.29.72 2.15 1.82 3.71 1.83a60.74 60.74 0 0 1-1.12 7.72 1.34 1.34 0 0 0-.84-1.11c-2.24-.89-3.59-2.39-6.22-2a6 6 0 0 0-4.2 2.76c-.92 1.37 5.13 2.93 5.67 2.95a9.86 9.86 0 0 0 5.08-1.63 1.12 1.12 0 0 0 .43-.42q-.6 2.71-1.43 5.32a7.87 7.87 0 0 0-5.45.12c-2.06.79 1.55 4.87 3.13 6q-.71 1.59-1.43 3.04a26.24 26.24 0 0 0-2.61-2.11 28 28 0 0 0-4.72-2.64 17.41 17.41 0 0 0-12.57-.21c-1.56.55-1.25 2.41.45 2.64 2.42.49 3.5 3.29 5.28 4.8a11.63 11.63 0 0 0 4 2.2 14.26 14.26 0 0 0 7.43.09q-1.16 1.84-2.45 3.59a3.87 3.87 0 0 0-.84-.64 5.6 5.6 0 0 0-4.51-.11.58.58 0 0 0-.23.89c1 1.27 1.31 2.71 2.53 3.68q-1.76 2-3.69 3.89a8 8 0 0 0-4.59.34c-.5.2-.56 1.1-.34 1.47a4.94 4.94 0 0 0 1.26 1.45q-1.26 1-2.57 2a6 6 0 0 0-.56-1.39c-1-1.68-2.81-2.26-4.59-2.66-2.12-.48-.43 3.59 1.56 6.5a60.77 60.77 0 0 1-7.53 4 7.93 7.93 0 0 0-1.7-3c-1.6-1.66-4.29-2.56-6.45-3.14-1.71-.46-.58 4.23-.39 5.13a8.3 8.3 0 0 0 1.64 3.48l.09.11q-1.74.54-3.52 1c-.44-2-1.23-4.17-2.29-3.66a5.22 5.22 0 0 0-2.95 3.73 4.36 4.36 0 0 0-.07 1q-1.62.25-3.27.4a9.25 9.25 0 0 0 0-1 8.83 8.83 0 0 0-2.5-6 1 1 0 0 0-1.65.53c-.27 2.51-2.38 4.22-2.77 6.73q-3.09 0-6.1-.4a6.24 6.24 0 0 0-2.38-4.1 1.05 1.05 0 0 0-1.32 0 .78.78 0 0 0-.54.27 4 4 0 0 0-1.08 3 60.33 60.33 0 0 1-6.69-1.79 1.76 1.76 0 0 0-.74-1.75 1.87 1.87 0 0 0-2.37.64 60.31 60.31 0 0 1-5.6-2.53 15.22 15.22 0 0 0 .24-4.58 1.11 1.11 0 0 0-1.47-.84 5.89 5.89 0 0 0-3.37 2.79q-1.13-.71-2.23-1.48a6.3 6.3 0 0 0 1-1.07c1.43-2 1.58-4.51 1.69-6.85a.87.87 0 0 0-1.61-.44c-1.4 2.24-4.49 2.48-6.25 4.36q-1.89-1.64-3.64-3.43c1.38-.42 2.74-.95 4.12-1.37a6.26 6.26 0 0 0 3.38-2c1.87-2.5.31-6.32.4-9.12a1.22 1.22 0 0 0-1.53-1.17c-2.6.61-5.2 1.75-6.55 4.19s-.84 5.16-1.54 7.66q-1.6-1.77-3.06-3.66c4-3.44 4-8.47 2-7.44-1.77.89-3.82 1.27-5.4 2.49q-1-1.68-2-3.43c1.59-1.13 4.84-.78 6.48-1.24A6 6 0 0 0 17.06 86a8.42 8.42 0 0 0 .3-9A1.54 1.54 0 0 0 15 77c-.8 1.6-3.67 1.58-5.2 2.13a7.68 7.68 0 0 0-5.05 5.3Q4.17 83 3.66 81.61l.21-.17c.18-.14.38-.29.56-.44.66-.55 0-1.68-.83-1.43a3.85 3.85 0 0 0-.56.23 60.36 60.36 0 0 1-1.64-6 5.85 5.85 0 0 0 3.06-2.64.92.92 0 0 0-.24-.92 4.21 4.21 0 0 0-3.63-1c-.09-.67-.18-1.33-.25-2 5.39 3.27 13.23.89 16.36-4.52a1.09 1.09 0 0 0-.7-1.64c-3.05-.54-5.4-1.76-8.65-1.31-2.74.38-5 2-7.35 3.29v-2.14l.26-.09c.68-.26 1.6-1.29 2.28-1.33s.55-.8.17-1.15a5.61 5.61 0 0 0-2.58-1.49q.09-1.33.22-2.64a4.91 4.91 0 0 0 1.87.78 5.67 5.67 0 0 0 2.22-.14c1.15-.22.7-1.9-.42-1.74A6.88 6.88 0 0 1 2.53 53a7.51 7.51 0 0 1-1.68-.45.92.92 0 0 0-.28-.06c.1-.75.22-1.5.35-2.24a7.4 7.4 0 0 0 4.53.58c3.31-.66 5-3.41 7.33-5.58.66-.62-.12-2.1-1-1.81-2.74.95-6-1.16-9-1a60.31 60.31 0 0 1 2.65-6.88 7.29 7.29 0 0 0 2.38.44c2.53.09 5.42-.59 6.94-2.74.64-.9-2.13-4.23-4.27-4.46a4.19 4.19 0 0 0-1.46.1q1.14-1.84 2.4-3.6a5.72 5.72 0 0 0 .9.65c2.54 1.48 5.57 1.2 8.29.49 1.66-.43-.08-4.57-4.36-7q1.73-1.86 3.61-3.58a5.58 5.58 0 0 0 .45.37c1.12.83 5.62 2 6 1.09.3-.26-.27-.95-.52-1.34-.73-1.14-1-2.46-1.86-3.49q1.39-1.06 2.84-2c.27.47.54.94.77 1.4a1.27 1.27 0 0 0 2.33-.19 6.23 6.23 0 0 0-.34-3Q32 7.17 34.61 5.91c.75.69 1.55 1.3 2.24 1.85 1.58 1.24 1.83-1.22 1.37-3.43a60.36 60.36 0 0 1 8-2.58 10.64 10.64 0 0 0 2.62 4c.6.64 1.6-.22 1.54-1.24-.07-1.2.93-2.15 1.18-3.26 0-.19.08-.38.1-.57a61.12 61.12 0 0 1 6.08-.6 7.69 7.69 0 0 0 1.47 1.76c.55.51 1.5 0 1-1a1.88 1.88 0 0 1-.07-.84zm-5.06 99.82a1 1 0 0 0 1.52-.22 8.53 8.53 0 0 0 1.69-4 4.12 4.12 0 0 0-.33-1.88c-.3-.71-1-1.47-1-2.28a1 1 0 0 0-1.62-.63c-2.27 2.76-3.11 6.24-.3 9l.07.05zm-38-40.19a1.78 1.78 0 0 0 1.5-1.24c.31-1.11-1.06-1.6-1.82-1.47a1.37 1.37 0 0 0-1.1 1.37 1.42 1.42 0 0 0 1.43 1.33zm9.7-3.75a4.82 4.82 0 0 0-5.34 2.83.61.61 0 0 0 .41.9 12.55 12.55 0 0 0 4.68.6A5.84 5.84 0 0 0 31 57.67a.47.47 0 0 0 .07-.19.66.66 0 0 0-.78-.83c-.86.15-2-.62-2.83-.77zm.34 35.7c-.88 2.9 6.46-2 6.74-2a.73.73 0 0 0 .3-1.41 6.45 6.45 0 0 0-4.73 0c-1.36.64-1.91 2-2.31 3.4zm16.77-6.07a4.62 4.62 0 0 0-4.15.68c-1.68 1.27-1.75 3.58-3.43 4.88a.86.86 0 0 0 .49 1.56c1.73.08 3.29.14 4.7-1 .8-.66 4.07-5.6 2.39-6.1zm21.32-2.43A6.43 6.43 0 0 0 68 85.86a.76.76 0 0 0 1.24-.63c.06-1.57.7-2.73-.09-4.27a3.94 3.94 0 0 0-2.65-2c-1-.27-.7 3.79-.6 4.12zm47.63-34.46c-1.87-1.91-5 1.61-2.53 2.79a2.14 2.14 0 0 0 2.38-.47 1.62 1.62 0 0 0 .15-2.32zM118.31 67a4.43 4.43 0 0 0-1 .06h-1.44a.86.86 0 0 0-.23 1.68 5.19 5.19 0 0 0 1.93.26 1.86 1.86 0 0 0 1.3-.49.83.83 0 0 0-.56-1.55zm-2.83-8.32c-2.1.27-4.26-.3-6.31.38a6.43 6.43 0 0 0-3.76 3.27c-.34.67.44 1.54 1 1.72a8.19 8.19 0 0 0 10-3.8c.34-.61-.07-1.66-.89-1.56zM102.7 71.8c2.38-.25 3.39-1.49 5.19-2.82a1.14 1.14 0 0 0-.27-2.05c-2.22-.64-4.5-1.67-6.86-1.4s-4.14 1.84-5.76 3.56c-1.8 2 7.1 2.77 7.66 2.72zm3.4 8.06a3.31 3.31 0 0 0 3.71-.94c.74-1.17-.78-2.2-1.61-2.74a4.56 4.56 0 0 0-3.84-.86 1 1 0 0 0-.68 1 .84.84 0 0 0 .12.53c.6 1 1.17 2.41 2.3 3zM96.86 96a1.12 1.12 0 0 0 .26-2c-1.15-.73-1.85-3.25-2.58-4.41a13.56 13.56 0 0 0-3.19-3.69 13.06 13.06 0 0 0-8.71-2.34c-2.7.15 3.75 10 5.06 11A9.51 9.51 0 0 0 96.86 96zM81.43 81.73a6.5 6.5 0 0 0 4.14.11.88.88 0 0 0 .52-1.28 6 6 0 0 0-5.71-3c-.61 0-1.87.67-1.39 1.55a5.44 5.44 0 0 0 2.43 2.64zm19.66-5.4C97.72 74.82 95 71.85 91.37 71c-3.38-.84-5.89.26-8.87 1.53-1.05.44 0 1.79.74 2 1.53.55 2.42 2.16 3.73 3a10.85 10.85 0 0 0 4.13 1.5c3.41.64 6-.29 9.37-.46 1.1-.06 1.81-1.75.62-2.28zm-1.32-13c1.73-.22 2.11-1.65 3.54-2.3 1-.47.55-1.83-.28-2.16-1.84-.73-3.66-1.19-5.56-.41a6 6 0 0 0-3.33 3.52C93.6 63.4 99 63.4 99.77 63.3zm2.32-6.52a10.57 10.57 0 0 0 2.38.78 9.25 9.25 0 0 0 2.35-.12 3.89 3.89 0 0 0 2-.87 3 3 0 0 0 .55-.66c.52-.83 1.5-2.36.22-2.82-6.82-2.47-9.24 3.08-7.45 3.69zm2.08-12.48c.07-.06 0 0 0 0zm-.38 3.4a1.67 1.67 0 0 0-.28 2.22 2 2 0 0 0 2.43.64 1.88 1.88 0 0 0 1.32-2.1c-.43-1.61-2.84-1.25-3.47-.77zm-12.63-13c-3 2.16-3.72 5.63-3.65 9.13 0 .91 1.27 1 1.76.69 3.34-2.25 7.45-2.23 10.8-4.32 2.88-1.8 3.74-5.18 5.19-8.06a1 1 0 0 0-1.31-1.31C100 33 95 31.93 91.15 34.73zm-1.42 13.89c-.34.63.25 1.85 1 1.78 2.87-.28 5.24.66 8-.72a9.65 9.65 0 0 0 4.61-5.68c.33-.88-.75-1.47-1.45-1.13-2.42 1.13-5.16.31-7.64 1.25a8.71 8.71 0 0 0-4.52 4.48zM83.87 59c-.74 1.28 1.13 1.22 1.82 1.36a12.33 12.33 0 0 0 6.24-.66c2.22-.77 2.75-2.79 4.53-4a1 1 0 0 0-.46-1.79c-2.52-.1-5.23-.47-7.63.52-2.16.89-3.37 2.62-4.5 4.58zm3.72 9.86c2.61-.75 3.09-2.24 4.78-4.08.5-.55.32-1.79-.62-1.72-2.79.19-5.5-.69-8.19.42a12.89 12.89 0 0 0-5.8 5.57.59.59 0 0 0-.07.13v.09a.54.54 0 0 0 0 .08c-.26 1.58 1.4.81 2 .68 2.65-.59 5.36-.41 8-1.16zM70.7 78.6a8.06 8.06 0 0 0 7-3.63c.56-.85-.38-2.07-1.33-1.55-1.32.72-4.85-.58-6.33-.7-1-.08-7.17-.7-6.86 1 .08 1.83 5.34 4.76 7.49 4.85zm6.06 5a8 8 0 0 0-3.28-3.16 1.12 1.12 0 0 0-1.65 1.2c.24.87-.24 2-.24 2.91a6.61 6.61 0 0 0 .21 1.61A6.35 6.35 0 0 0 73.45 89c1.81 1.81 4.18 2.08 6.62 1.84 1.09-.1 1.5-1.59-.1-2.13-2.12-.71-2.25-3.44-3.2-5.13zM60.9 87.3a1.15 1.15 0 0 0 1.66-1.09c-.16-1.27.82-2.72 1-4a7.37 7.37 0 0 0-.11-2.76 6.53 6.53 0 0 0-2.9-4 .91.91 0 0 0-1.41.72C57.53 79.91 56.61 85 60.9 87.3zm3.25-17.09a10.75 10.75 0 0 0 11-1.72 1.09 1.09 0 0 0-.77-1.85c-2.18.25-4.28-.75-6.48-.47a8.23 8.23 0 0 0-4.88 2.43c-.86.84.46 1.35 1.09 1.61zm7.6-5.7a8.44 8.44 0 0 0 5.66-.27 5.69 5.69 0 0 0 2.26-1.54c.83-.95 1-2.24 1.85-3.18.62-.72-.11-2.11-1.1-1.66-3.48 1.59-8.6 1.39-10.44 5.36-.56 1.21 1.09 1.05 1.77 1.29zm-8.18 1.05a8.13 8.13 0 0 0 4.48-3.06 6.11 6.11 0 0 0 .81-2.5c.1-.68-.07-2.86.39-3.38A1 1 0 0 0 68 55c-3.39 1.77-4.42 4.91-5.2 8.37-.1.43-1.18 2.71.75 2.16zm22.68-17.61c-4.91.84-11.79-.36-14 5.43a1 1 0 0 0 0 .1 1.17 1.17 0 0 0 .52 2 10.66 10.66 0 0 0 8.06-.2c2.69-1.23 4.38-3.47 6.6-5.3 1-.84-.12-2.19-1.17-2zm-9.09-7.89c-1.31 1.41-3.74 7.75-1.09 7.41 2.12-.28 4.63-1 6.2-2.53 1.82-1.81 2-4.19 2.77-6.49.36-1.08-.9-1.82-1.79-1.38S81 37.7 80 38.15a8.32 8.32 0 0 0-2.82 1.91zM66.48 43c-1.72 2.78-.94 5.87-1.51 9-.15.79.57 2 1.35 1.51 1.89-1.26 4.19-2.24 5.26-4.35 1.38-2.72 1-6 2.46-8.75.43-.82-.31-2.12-1.33-1.73-2.38.93-4.84 2.1-6.23 4.36zm-4.69 15.59c-.14-1.74 1.49-3.56 1.69-5.38a21.85 21.85 0 0 0-.55-5.86.9.9 0 0 0-1.59-.26c-1.75 1.34-3.2 2.77-3.46 5.1s.83 4.8 2 6.92a1 1 0 0 0 1.94-.52zm-8.87-3.46a1.19 1.19 0 0 1-.25 1.87c-3.91 1.66-8.5-.66-8.44-5.17a.87.87 0 0 1 .72-.82.77.77 0 0 1 .74-.08 37.56 37.56 0 0 1 4 1.55 22.2 22.2 0 0 1 3.22 2.66zm-6.09 4.22zm5.27 1.43c1.62.72 2 2.29 3.13 3.49A4.76 4.76 0 0 0 59 65.89c1.15 0 .91-1.77.79-2.59a4.13 4.13 0 0 0-.42-1.25 7.2 7.2 0 0 0-1.61-2.27c-1.42-1.23-3.72-1.26-5.45-.83a.8.8 0 0 0-.59.89.7.7 0 0 0 .41.93zM59 72.4a1.78 1.78 0 0 0 2.21-1.18 1.8 1.8 0 0 0-.26-1.4 4.65 4.65 0 0 0-1-.94 1.84 1.84 0 0 0-2.72 1.47 2.43 2.43 0 0 0 1.75 2zm27.63 25.42c-1.1-2.17-3.78-3.36-6-4a.77.77 0 0 0-1 .65.8.8 0 0 0 0 .89c1.76 2.84.29 5.94 1.28 8.94.74 2.24 2.81 3 4.84 3.8.82.33 1.41-.6 1.29-1.29-.51-2.86 1-6.31-.39-9zm14.95 2.24a1.75 1.75 0 0 0 1.37-1.06c.75-1.87-3.38-2.19-2.79.12a1.28 1.28 0 0 0 1.42.95zM93 103.73c1.81.47 3.6-.32 5.33-.75a1 1 0 0 0 .61-1.51 5.84 5.84 0 0 0-8.17-2.17c-.49.3-.42 1.16-.35 1.68a3.23 3.23 0 0 0 2.58 2.75zM89.38 112a1.77 1.77 0 0 0-1.68-1 1.46 1.46 0 0 0-1.22 2.2v.14a1.45 1.45 0 0 0 .4.55 1.33 1.33 0 0 0 .36.28 1.66 1.66 0 0 0 .3.14h.26c-.15 0-.14 0 0 0a1.6 1.6 0 0 0 .79-.12h.11a1.33 1.33 0 0 0 .38-.25 1.48 1.48 0 0 0 .5-1.1 1.74 1.74 0 0 0-.12-.61 2.18 2.18 0 0 0-.13-.31zm-12.73-7.64c-.33-2.15.43-4.07-.48-6.14a14.35 14.35 0 0 0-3.43-4.6 1 1 0 0 0-.53-.26.87.87 0 0 0-1.38.66c-.07 2.43-1.46 4.63-.51 7 .86 2.17 2.88 3.45 4.91 4.38a1 1 0 0 0 1.41-1.09zM71.31 115c-.06-1.36.68-2.63.85-4a7.3 7.3 0 0 0-.3-3.31 9.54 9.54 0 0 0-4.07-4.88c-.76-.5-1.84.35-1.91 1-.27 2.53-1 5.23-.14 7.72.71 2 2.34 3.17 4 4.28a1 1 0 0 0 1.52-.87zm-6.72-12.73a19.42 19.42 0 0 0 2.64-5.9 11.23 11.23 0 0 0 .14-3.3c-.13-1.32-1.11-3.3-.79-4.58.23-.95-1.1-1.24-1.61-.64-1.67 2-3.65 4-4.25 6.65-.63 2.77.68 4.93 2.06 7.23.27.44 1.37 1.28 1.81.53zm-7.3 1.73c-1-.65-1.38 3.41-2.38 5.29a6.62 6.62 0 0 0-.78 3 6.69 6.69 0 0 0 2 5 1.13 1.13 0 0 0 1.87-.39c.44-1.09 1.86-1.57 2.52-2.56a6.92 6.92 0 0 0 .93-3.75c0-2.7-1.92-5.13-4.14-6.61zm-16.9 8a6.39 6.39 0 0 0 1.19-4.18 1 1 0 0 0-.68-.9.79.79 0 0 0-.73-.15 6.15 6.15 0 0 0-4.67 6.7 1 1 0 0 0 1.66.69c1.06-.85 2.36-1 3.23-2.16zM52 109.85a13.66 13.66 0 0 0 1.66-5.06c.47-3.28-.29-6.68-3.47-8.26-.94-.47-2 .62-1.88 1.32.24 2-1.85 3.55-2.93 5a9.51 9.51 0 0 0-2 4.76 13.39 13.39 0 0 0 2.31 9.29 1.09 1.09 0 0 0 2-.83c-.27-1.81 3.4-4.59 4.37-6.22zm-4.24-17.26c.56 1.45 5.17-1.14 5.83-2.24a6.09 6.09 0 0 0 .41-4.77.84.84 0 0 0-1.61.12c-.21 1.12-2 1.14-2.77 1.56a4.09 4.09 0 0 0-1.9 5.34zm9-19.67c-.45-2.12-7.3 2-8.31 3.39a10.85 10.85 0 0 0-1.51 8 1 1 0 0 0 1.79.65c1-1.08 2.89-1.43 4.1-2.37A10.86 10.86 0 0 0 55.21 80a9.28 9.28 0 0 0 1.56-7.12zm-10.15.59A1.06 1.06 0 0 0 46 72a10.28 10.28 0 0 0-8.85 1.79.94.94 0 0 0 0 1.47.91.91 0 0 0 .3.25c1.54.81 3.93 1.94 5.7 1.45a6.22 6.22 0 0 0 3.49-3.42zm3.49-2.8a4.88 4.88 0 0 0 4.65-3 .92.92 0 0 0-.12-.94c-2.88-3.06-7-3.18-10.61-1.46a.83.83 0 0 0-.29.22.89.89 0 0 0-.09 1.49c2.1 1.59 3.59 3.54 6.46 3.66zm-3.4-10.47a8.55 8.55 0 0 0-5.32-3.13c-2.75-.46-4.86.9-7.48 1.36-.89.16-1.1 1.61-.38 1.89 1.92.75 3.69 2.13 5.73 2.53a12.5 12.5 0 0 0 6.9-1 1.14 1.14 0 0 0 .55-1.71zM35.6 65c-3.26 0-5.38 1.94-8.23 3.09-2 1.89 5.21 3.17 7.85 3.25S39 70 41.28 69.4a1.12 1.12 0 0 0 .49-1.86A9.1 9.1 0 0 0 35.6 65zM23 69.81c2.4-1.39 2.72-3.91 4.55-5.72a1.06 1.06 0 0 0-1-1.76c-3 .67-6.25.83-8.8 2.71-2.24 1.66-3.08 4.29-3.46 6.95s7.8-1.64 8.73-2.18zm3.35 7.75A4.23 4.23 0 0 0 27.83 76c.35-.64.36-2.15 1-2.52a1 1 0 0 0-.53-1.94 9.33 9.33 0 0 0-5.37 1.19c-1.44 1-1.6 2.8-2.86 3.86a.84.84 0 0 0 .24 1.41.79.79 0 0 0 .49.27 7.91 7.91 0 0 0 5.53-.68zm-1 8.81c2.46-.59 5.15 0 7.33-1.55 2.42-1.73 2.31-4.62 3.93-6.83a1 1 0 0 0-.88-1.53c-2.61.3-5.31.74-7.49 2.31-1.56 1.12-6.07 8.36-2.89 7.6zm17.83-7.61c-1.25.55-2.74.3-3.93 1s-1.43 1.95-1.4 3.33c0 .48.65 1.31 1.21 1.31a5.5 5.5 0 0 0 3.35-1.17c1-.89 1.28-2.23 1.85-3.4a.85.85 0 0 0-1.08-1.12zM30.24 98.32a2.31 2.31 0 0 0 1.94-1.6c.4-1.44-1.37-2.08-2.36-1.9a1.77 1.77 0 0 0-1.43 1.78 1.84 1.84 0 0 0 1.85 1.72zm11 4c2.32-1.74 2.3-4.77 3.24-7.26.28-.73-.54-1.41-1.22-1.22-2.77.74-5.87 1-8.17 2.91s-2.36 5.17-3.17 7.83c-.61 1.94 8.33-1.5 9.33-2.25zM11.42 72.19c.49-1.28-1.38-1.85-2.08-.88-.34.47-1.4.68-1.91.85a7.46 7.46 0 0 0-1.86.84 2.86 2.86 0 0 0-1.28 3.18c.14.55.5 1.41 1.16 1.4 1.53 0 3.2.06 4.44-1 1.41-1.2.94-2.83 1.52-4.37zm-2.9-16.47c.4 1.11 5.84-.71 7.94-.64 1.91.06 3.93.64 5.83.25A9.58 9.58 0 0 0 26 53.52c1.53-1.17 2.17-3 3.6-4.18a1.19 1.19 0 0 0-1-2.06c-2.63.37-4.94-.78-7.52-1a12.58 12.58 0 0 0-5.45.82c-2.43.94-8.44 6.11-7.14 8.58zm26.41-.29A5.36 5.36 0 0 0 40 54.2a1.08 1.08 0 0 0 .17-1.31c-1.57-2.53-5.26-3.44-8-2.89a.88.88 0 0 0-.68 1.21.93.93 0 0 0 0 .24 5.12 5.12 0 0 0 3.44 4zM32 43.95a.87.87 0 0 0-.36.54 1.06 1.06 0 0 0 .62 1.63c3 .59 4.75 3.64 7.8 3.92 2.44.23 4.68-1.21 6.73-2.33a1.07 1.07 0 0 0-.25-1.93c-2.71-.82-4.94-2.8-7.72-3.39A8.53 8.53 0 0 0 32 43.95zm-6.68-2.75A10.48 10.48 0 0 0 21 42.33a.82.82 0 0 0 .11 1.54 14.11 14.11 0 0 0 4 1.56c1.33.18 2.07-.63 3.24-1a.76.76 0 0 0 .33-1.25 4.35 4.35 0 0 0-3.29-1.94zM14.9 38a2.06 2.06 0 0 0 2.1 3.55 2.09 2.09 0 0 0 .86-2.72c-.57-1.56-1.82-1.35-3-.82zm-7.58.79a6.85 6.85 0 0 1-1.78-.22.86.86 0 0 0-.66 1.56 4.76 4.76 0 0 0 4.66.11c.68-.47.5-1.7-.45-1.67-.6 0-1.17.18-1.77.21zm15.37-17.12c2.09 1.54 2.58 4.31 5 5.57a9.12 9.12 0 0 0 6.36.54 1 1 0 0 0 .07-1.92.79.79 0 0 0-.12-.15c-1-.94-.93-2.49-1.61-3.62A5.87 5.87 0 0 0 30 19.94c-2.24-1.13-4.76-.81-7.09-.14a1 1 0 0 0-.24 1.87zM31 17.43a1.65 1.65 0 0 0 1-1.62 1.68 1.68 0 0 0-2.16-1.46 1.59 1.59 0 0 0-.89.65 1.68 1.68 0 0 0 2 2.43zm1.5-5.34c2.44 1.18 2.6 5 3.36 7.29A12.23 12.23 0 0 0 38 23.56c2.26 2.64 5.63 3.2 8.93 3.13A1.29 1.29 0 0 0 48 24.93c-.8-2.28-.06-4.45-.45-6.75a8 8 0 0 0-2.42-4.42c-3-2.82-8.14-3.63-12.06-3.78a1.14 1.14 0 0 0-.57 2.11zM19.87 88.22a1.24 1.24 0 0 0 1.35-1.09v-.28a1.23 1.23 0 0 0-2.44-.26v.28a1.24 1.24 0 0 0 1.09 1.35zm22.55-79a3 3 0 0 0 1.41 1.08A1 1 0 0 0 45 9.58c.47-2.14-1.87-3.78-3-5.71-.41-.69-1.66-.44-1.59.43.09 1.27 0 2.54.84 3.62a14.11 14.11 0 0 0 1.16 1.26zm25.37 8.89c.38 1 1.91 2.37 2 3.36s1.18.81 1.7.25a7.52 7.52 0 0 0 2.32-4.54c.13-2.32-.7-4.81-1.16-7.06a1 1 0 0 0-1.67-.44c-1.38 1.73-3.05 3.48-3.41 5.76a5.13 5.13 0 0 0 .26 2.67zm-5.87 1.79a14.67 14.67 0 0 0 3.15-7.6c.45-3.13-1.46-6.14-1.7-9.26a1.08 1.08 0 0 0-2.15 0c-.29 3.8-3.94 6-4.21 9.7-.12 1.7 3.17 9.2 4.91 7.16zm-12.74-8.23a3.67 3.67 0 0 0 4.29 4.13 2.9 2.9 0 0 0 2-2.86c0-2-1.6-3.19-.8-5.22.34-.88-.79-1.55-1.5-1.15a7.42 7.42 0 0 0-4 5.11zm7.4-6.55a1.38 1.38 0 0 0 1-1.32 1.18 1.18 0 0 0-.43-.92 1.47 1.47 0 0 0-.86-.27 1.41 1.41 0 0 0-1.23 1.69 1.3 1.3 0 0 0 1.52.81zM108 26.82a1.75 1.75 0 0 0 1.34-2.2c-.79-2.18-4.92-1-3.82 1.15a2.21 2.21 0 0 0 2.48 1.05zM77.21 12.47c-1.72 1.59-.56 3.78 0 5.64a1 1 0 0 0 1.77.23c.67-1-.12-7.35-1.73-5.87zm23.13 15.8a3 3 0 0 0 1.31-1.56c.33-.79.39-2.64 1-3.16.84-.71-.09-1.87-1-1.7-1.82.36-4.07.37-5.59 1.56A4.73 4.73 0 0 0 94.78 25c-.42.82-.39 1.8-.87 2.57a.84.84 0 0 0-.1.24.89.89 0 0 0 .6 1.39 9.58 9.58 0 0 0 5.93-.93zm-9.86-12c-6.23 3.61-10.31 9.31-8.27 16.73a.76.76 0 0 0 .73.61 1.29 1.29 0 0 0 1.35.1c2.82-1.22 5.46-3 6.79-5.88 1.55-3.36 0-6.91 1.06-10.36a1.14 1.14 0 0 0-1.66-1.28zM71 36.64c-.33 3.68 7.65-3.06 8.6-5.25 1.32-3-.33-6.11.7-9.24a1 1 0 0 0-1.3-1.29c-2.71 1-5.22 2.67-6.35 5.47-.69 1.7-.38 3.08-.51 4.85s-1 3.56-1.16 5.45zm-6.36-15.56c-1.46 4.2-5.11 7-6.25 11.46-.69 2.69.26 13.9 2.94 11.64 2.47-2.09 6-5.16 7-8.4 1.49-5-2.43-9.19-1.67-14.14a1 1 0 0 0-2-.55zM50.75 28c.74 4.12 5.51 6.76 5.13 4.16-.5-3.35 3.65-5.72 3-9.13-.46-2.4-3.29-4.17-5.31-5.1-.64-.3-1.6.2-1.32 1 .66 1.89-.59 3.35-1.17 5.07a8.12 8.12 0 0 0-.32 4zm-7.59 2.69c2.82 3.67.51 8.88 3 12.78 3.07 4.74 12.7 5.33 11.12 3s-1.89-4.1-2.28-6.77a10.93 10.93 0 0 0-2.25-4.88 15.6 15.6 0 0 0-8.38-5.67c-.8-.22-1.76.78-1.18 1.53zm-1.46 2.5a5.36 5.36 0 0 0-1.3-2.09 6.07 6.07 0 0 0-5-1.51.8.8 0 0 0-.76 1c.53 1.76.84 3.7 2.07 5.14a6.85 6.85 0 0 0 5.05 2.21.64.64 0 0 0 .26 0 .82.82 0 0 0 .46-1.32c-.67-.78-.46-2.4-.8-3.37zM28.37 31c-3.62-1.61-7.46-1-11.21-1.84a.85.85 0 0 0-1.21 1.12c1.82 3 3.4 7 7.13 8.66s7.91 1 11.82.42a1.18 1.18 0 0 0 .7-1.72A17.28 17.28 0 0 0 28.37 31z"/><path class="cls-2" d="M191.56 38.59c0-6.89-4.85-12.11-11.66-12.11s-11.66 5.21-11.66 12.11 4.85 12.11 11.66 12.11 11.66-5.22 11.66-12.11zm-20.67 0c0-5.39 3.65-9.49 9-9.49s9 4.1 9 9.49-3.65 9.49-9 9.49-9-4.08-9-9.49zm65.78-.66a6.83 6.83 0 0 0 1.28-4.18 6.83 6.83 0 0 0-1.28-4.18c-1.86-2.49-5.28-3.09-8.19-3.09h-6.89a.87.87 0 0 0-.87.87v22.06a.85.85 0 0 0 0 .18 1.33 1.33 0 0 0 1.28 1.1 1.33 1.33 0 0 0 1.31-1.11.88.88 0 0 0 0-.18V41h5.11c2.97 0 6.39-.59 8.25-3.07zm-13.29.53V29h4.8c2 0 5 .23 6.31 2a4.39 4.39 0 0 1 .8 2.75 4.39 4.39 0 0 1-.8 2.75c-1.34 1.72-4.32 2-6.31 2zM244 50.69h15.1a1.28 1.28 0 0 0 1.28-1.28 1.29 1.29 0 0 0-1.13-1.27h-13.5V39.6h11.83a1.28 1.28 0 1 0 0-2.56h-11.83V29h13.47a1.28 1.28 0 0 0-.15-2.55H244a.87.87 0 0 0-.87.87v22.5a.87.87 0 0 0 .87.87zm-38.66 0c3.3 0 7.47-.71 9-4.1a7.26 7.26 0 0 0-.39-6.22 6 6 0 0 0-2.6-2.18c2.54-1.32 3.33-5.23 2.25-7.74-1.45-3.37-5.79-4-9-4h-6.1a.87.87 0 0 0-.87.87v22.5a.87.87 0 0 0 .87.87zM200.2 29h4.31c1.93 0 5.35.22 6.44 2.17a5 5 0 0 1-.07 4c-1 1.68-4.18 1.79-5.88 1.79h-4.8zm0 10.38h4.8c2 0 5.43.22 6.63 2.18a5.12 5.12 0 0 1 0 4.44c-1.18 1.86-4.34 2.09-6.29 2.09h-5.14zm-45.41 11.26a12 12 0 0 0 8.52-3.53 1.3 1.3 0 0 0-1.84-1.84 9.42 9.42 0 0 1-6.68 2.73 9.45 9.45 0 0 1 0-18.9 9.42 9.42 0 0 1 6.68 2.77 1.3 1.3 0 1 0 1.84-1.84 12 12 0 0 0-8.52-3.53 12 12 0 1 0 0 24.1zm211.52-24.16a1.31 1.31 0 0 0-1.25 1 .86.86 0 0 0-.07.34v9.59h-13.6v-9.62a.86.86 0 0 0-.07-.34 1.3 1.3 0 0 0-2.51 0 .86.86 0 0 0-.07.34v21.64a.85.85 0 0 0 .09.37 1.31 1.31 0 0 0 2.48 0 .85.85 0 0 0 .09-.37v-9.49H365v9.49a.85.85 0 0 0 .09.37 1.31 1.31 0 0 0 2.48 0 .85.85 0 0 0 .09-.37V27.79a.86.86 0 0 0-.07-.34 1.31 1.31 0 0 0-1.28-.97zM323.7 50.69a1.33 1.33 0 0 0 1.28-1 .86.86 0 0 0 0-.29v-9.46h13.59v9.49a.86.86 0 0 0 0 .29 1.33 1.33 0 0 0 2.56 0 .86.86 0 0 0 0-.29V27.79v-.05a1.33 1.33 0 0 0-2.65 0v9.64H325v-9.59-.05a1.33 1.33 0 0 0-2.65 0v21.69a.87.87 0 0 0 0 .29 1.33 1.33 0 0 0 1.35.97zm69.83-2l-8.93-21.23v-.08a1.36 1.36 0 0 0-2.56 0v.08L373 48.67l-.07.17a1.31 1.31 0 0 0 .62 1.72 1.34 1.34 0 0 0 1.74-.7v-.09l1.94-4.62h12l1.94 4.62v.09a1.34 1.34 0 0 0 1.74.7 1.31 1.31 0 0 0 .62-1.72zm-15.13-6.1L383.28 31l4.88 11.64zm37.75-16.11h-6.4c-4.79 0-9.47 1.19-9.47 6.84 0 4 2.34 5.85 5.73 6.53l-6.14 8.6-.11.15a1.31 1.31 0 0 0 .18 1.82 1.33 1.33 0 0 0 1.86-.26l.06-.08 7.14-9.92h5.39v9.27a.87.87 0 0 0 0 .29 1.33 1.33 0 0 0 2.56 0 .86.86 0 0 0 0-.29V27.35a.87.87 0 0 0-.8-.87zm-1.78 11.13h-4.31c-1.83 0-5.09-.08-6.37-1.64a4.11 4.11 0 0 1-.75-2.64 4.11 4.11 0 0 1 .75-2.64c1.31-1.57 4.53-1.69 6.36-1.69h4.31zm-98.46 11.8a1.27 1.27 0 0 0-1.1-1.24.85.85 0 0 0-.16 0h-13.33V39.6h11.83a1.28 1.28 0 0 0 1.28-1.28 1.28 1.28 0 0 0-1.28-1.32h-11.83v-8h13.34a.85.85 0 0 0 .16 0 1.27 1.27 0 0 0 1.1-1.24 1.28 1.28 0 0 0-1.28-1.28h-15.1a.87.87 0 0 0-.87.87v22.47a.87.87 0 0 0 .87.87h15.1a1.28 1.28 0 0 0 1.27-1.28zm-27.78-.06a.87.87 0 0 0 0 .21 1.27 1.27 0 0 0 2.54-.14V28a1.55 1.55 0 0 0-3-.57l-9.36 18.3L269 27.45a1.55 1.55 0 0 0-3 .57v21.4a1.27 1.27 0 0 0 2.54.14.87.87 0 0 0 0-.21l-.1-17.06 9 17.59a.85.85 0 0 0 .77.47h.25a.85.85 0 0 0 .77-.47l9-17.59zM191.39 70h.13a1.28 1.28 0 0 0-.15-2.55h-15.1a.87.87 0 0 0-.87.87v22.45a.87.87 0 0 0 .87.87h15.1a1.28 1.28 0 0 0 .15-2.55h-13.46v-8.53h11.83a1.28 1.28 0 0 0 1.28-1.28 1.28 1.28 0 0 0-1.28-1.28h-11.83v-8zm-24-1a1.55 1.55 0 0 0-3-.57l-9.36 18.3-9.36-18.3a1.55 1.55 0 0 0-3 .57v21.37a1.27 1.27 0 0 0 2.54.14.88.88 0 0 0 0-.21l-.1-17.06 9 17.59a.85.85 0 0 0 .77.47h.25a.85.85 0 0 0 .77-.47l9-17.59-.1 17.06a.87.87 0 0 0 0 .21 1.27 1.27 0 0 0 2.54-.14V69zm54.35 20.1h-2.68V68.3a.87.87 0 0 0-.87-.87h-6.65a9 9 0 0 0-8.83 8.95v8.34a9 9 0 0 1-1 4.36h-2.07a1.33 1.33 0 0 0-1.32 1.33v3.37a1.33 1.33 0 0 0 1.33 1.33 1.33 1.33 0 0 0 1.33-1.33v-2.14h19.39v2.13a1.33 1.33 0 0 0 1.33 1.33 1.33 1.33 0 0 0 1.33-1.33v-3.36a1.33 1.33 0 0 0-1.24-1.33zm-5.33 0h-11.7a12.67 12.67 0 0 0 .7-4.36v-8.33a6.3 6.3 0 0 1 6.18-6.41h4.87zm140.14.55l-8.94-21.22v-.08a1.36 1.36 0 0 0-2.56 0v.08l-8.94 21.22-.07.17a1.3 1.3 0 0 0 .62 1.72 1.34 1.34 0 0 0 1.75-.7v-.09l1.94-4.62h12l1.94 4.62v.09a1.34 1.34 0 0 0 1.75.7 1.3 1.3 0 0 0 .62-1.72zm-15.14-6.08l4.88-11.64 4.88 11.64zm-10.93-14.8v-.05a1.33 1.33 0 0 0-2.65 0v9.64h-13.55v-9.62-.05a1.33 1.33 0 0 0-2.65 0v21.7a.86.86 0 0 0 0 .29 1.33 1.33 0 0 0 2.56 0 .86.86 0 0 0 0-.29v-9.5h13.59v9.49a.87.87 0 0 0 0 .29 1.33 1.33 0 0 0 2.56 0 .87.87 0 0 0 0-.29V68.76zm-55.07 20.31h-1.59V68.74v-.05a1.33 1.33 0 0 0-2.65 0v20.39h-12.64V68.74v-.05a1.33 1.33 0 0 0-2.65 0v21.7a.86.86 0 0 0 0 .29 1.33 1.33 0 0 0 1.28 1h16.88v2.13a1.33 1.33 0 0 0 2.65 0v-3.4a1.33 1.33 0 0 0-1.28-1.33zM247 67.43c-.65 0-.81.31-1.16.74L231 86.46q0-8.87.08-17.74a1.35 1.35 0 0 0-1.33-1.29 1.33 1.33 0 0 0-1.31 1.12.86.86 0 0 0 0 .17v21.71a1.22 1.22 0 0 0 1.22 1.22c.63 0 .82-.32 1.15-.74l14.87-18.3-.05 17.75a.85.85 0 0 0 .08.37 1.32 1.32 0 0 0 2.56-.22.88.88 0 0 0 0-.14v-21.7a1.24 1.24 0 0 0-1.27-1.24zm55.1 0c-.65 0-.81.31-1.16.74l-14.86 18.3q0-8.87.08-17.74a1.35 1.35 0 0 0-1.33-1.29 1.33 1.33 0 0 0-1.31 1.12.87.87 0 0 0 0 .17v21.7a1.22 1.22 0 0 0 1.22 1.22c.63 0 .82-.32 1.15-.74l14.87-18.3-.05 17.75a.86.86 0 0 0 .08.37 1.32 1.32 0 0 0 2.56-.22.85.85 0 0 0 0-.14v-21.7a1.24 1.24 0 0 0-1.26-1.24z"/></g></g></svg>