<svg xmlns="http://www.w3.org/2000/svg" xmlns:xlink="http://www.w3.org/1999/xlink" width="205" height="48" viewBox="0 0 205 48"><defs><path id="a" d="M102.94 20h22.12c4.5 0 6.13.47 7.77 1.35a9.17 9.17 0 0 1 3.82 3.82c.88 1.64 1.35 3.27 1.35 7.77v22.12c0 4.5-.47 6.13-1.35 7.77a9.17 9.17 0 0 1-3.82 3.82c-1.64.88-3.27 1.35-7.77 1.35h-22.12c-4.5 0-6.13-.47-7.77-1.35a9.17 9.17 0 0 1-3.82-3.82C90.47 61.2 90 59.56 90 55.06V32.94c0-4.5.47-6.13 1.35-7.77a9.17 9.17 0 0 1 3.82-3.82c1.64-.88 3.27-1.35 7.77-1.35z"/><path id="b" d="M218.77 34.07h-1.65v2.15h-1V31.1h1v2.09h1.65V31.1h1v5.13h-1z"/><path id="c" d="M223.8 35.08h-1.52l-.36 1.14h-1l1.66-5.13h1l1.65 5.13h-1.06zm-1.29-.8h1.1l-.52-1.72h-.07z"/><path id="d" d="M230.36 37.21h-.9v-.99h-3.24V31.1h1.03v4.24h1.45V31.1h1.03v4.24h.63z"/><path id="e" d="M234 33.5l.05-.66h-.03l-.3.69-1.44 2.7h-.93v-5.14h1v2.66l-.07.69h.04l.31-.71 1.44-2.64h.92v5.13h-1z"/><path id="f" d="M236.48 33.82c0-.42.04-.8.12-1.15.08-.34.2-.62.37-.86.17-.23.37-.4.62-.53s.54-.19.88-.19c.36 0 .66.07.92.2.25.14.45.32.6.57.17.24.28.52.36.86.07.33.1.7.1 1.1 0 .86-.16 1.53-.49 2-.33.5-.83.73-1.5.73-.35 0-.66-.07-.91-.2a1.67 1.67 0 0 1-.62-.56 2.47 2.47 0 0 1-.34-.87c-.07-.33-.1-.7-.1-1.1m1.07 0c0 .26.02.5.04.71.02.22.06.42.13.58.06.16.15.29.27.38.12.1.27.15.47.15.17 0 .32-.04.43-.11.12-.08.21-.19.28-.34.07-.15.12-.33.15-.56a6.65 6.65 0 0 0-.1-2.08.9.9 0 0 0-.28-.4.74.74 0 0 0-.48-.14c-.35 0-.6.15-.72.45-.12.3-.19.76-.19 1.36"/><path id="g" d="M244.26 34.07h-1.65v2.15h-1V31.1h1v2.09h1.65V31.1h1v5.13h-1z"/><path id="h" d="M249.3 35.08h-1.53l-.35 1.14h-1l1.65-5.13h1l1.65 5.13h-1.06zm-1.3-.8h1.1l-.52-1.72h-.07z"/><path id="i" d="M254.65 32h-.97a72.87 72.87 0 0 1-.18 2.35c-.05.31-.1.59-.16.82-.06.24-.15.43-.25.6-.14.23-.3.4-.49.49a1.27 1.27 0 0 1-1.06.02l.12-.88a.4.4 0 0 0 .08.02.57.57 0 0 0 .34-.05c.08-.04.16-.11.22-.2.07-.11.13-.28.18-.5.05-.21.09-.49.12-.82.03-.33.06-.73.08-1.18l.05-1.58h2.95v5.24h-1.03z"/><path id="j" d="M257.17 31.09h1.03v1.87a2.26 2.26 0 0 1 .3-.03l.22-.02a3.32 3.32 0 0 1 .9.07c.23.05.43.14.61.26.18.13.32.3.42.52.11.21.16.49.16.82 0 .6-.18 1.05-.56 1.35-.37.3-.9.46-1.6.46h-.28a6.88 6.88 0 0 1-1.2-.13zm1.54 4.39c.14 0 .27-.02.4-.05a.9.9 0 0 0 .32-.14c.1-.06.17-.15.22-.26.06-.11.08-.25.08-.4 0-.17-.02-.31-.08-.42a.66.66 0 0 0-.23-.25.83.83 0 0 0-.32-.12 2.46 2.46 0 0 0-.52-.02l-.15.02a1.44 1.44 0 0 0-.23.03v1.56a3.25 3.25 0 0 0 .51.05z"/><path id="k" d="M264.61 34.07h-1.64v2.15h-1V31.1h1v2.09h1.64V31.1h1v5.13h-1z"/><path id="l" d="M269.65 35.08h-1.53l-.35 1.14h-1l1.66-5.13h1l1.64 5.13h-1.05zm-1.29-.8h1.1l-.52-1.72h-.07z"/><path id="m" d="M275.87 36.39h-1.01v-1.95h-.5l-1.1 1.95h-1.2l1.31-2.13c-.11-.04-.22-.1-.34-.18a1.3 1.3 0 0 1-.3-.3 1.48 1.48 0 0 1-.21-.43 1.89 1.89 0 0 1-.08-.58c0-.33.07-.61.23-.84a1.83 1.83 0 0 1 1.17-.78 4.24 4.24 0 0 1 1.06-.05 6.72 6.72 0 0 1 .97.12zm-1.01-4.35a2.14 2.14 0 0 0-.38-.04c-.12 0-.24.01-.35.04a.71.71 0 0 0-.3.15.87.87 0 0 0-.23.25.8.8 0 0 0 .52 1.16c.15.04.3.06.44.06h.3z"/><path id="n" d="M219.11 45.11h.82v1.5c-.16.12-.36.2-.6.27a2.9 2.9 0 0 1-1.7-.05c-.29-.1-.55-.25-.77-.47-.22-.22-.4-.5-.54-.85-.13-.35-.2-.77-.2-1.26 0-.52.08-.95.23-1.3a2.17 2.17 0 0 1 1.38-1.3 3.28 3.28 0 0 1 1.62-.06c.2.05.37.1.5.18v1.56h-.81v-.86a2.87 2.87 0 0 0-.48-.04c-.2 0-.37.04-.54.11-.16.07-.3.19-.43.34-.13.15-.22.33-.3.56-.06.23-.1.5-.1.8 0 .28.04.53.1.75.07.22.16.41.28.57a1.26 1.26 0 0 0 1.07.5c.16 0 .32-.01.47-.04z"/><path id="o" d="M223.9 43.94l.06-.67h-.04l-.3.69-1.44 2.69h-.93v-5.13h1v2.66l-.07.69h.04l.32-.71 1.44-2.64h.92v5.13h-1z"/><path id="p" d="M229.2 45.11h.83v1.5c-.16.12-.36.2-.6.27a2.9 2.9 0 0 1-1.7-.05c-.3-.1-.55-.25-.77-.47-.23-.22-.4-.5-.54-.85-.13-.35-.2-.77-.2-1.26 0-.52.08-.95.23-1.3a2.16 2.16 0 0 1 1.38-1.3 3.27 3.27 0 0 1 1.62-.06c.2.05.37.1.5.18v1.56h-.82v-.86a2.9 2.9 0 0 0-.47-.04c-.2 0-.37.04-.54.11-.17.07-.31.19-.44.34a1.6 1.6 0 0 0-.29.56c-.07.23-.1.5-.1.8 0 .28.03.53.1.75.06.22.15.41.28.57a1.28 1.28 0 0 0 1.06.5c.17 0 .32-.01.48-.04z"/><path id="q" d="M231.71 45.84h.87v-3.52h-.73v.9h-.83v-1.7h4.14v1.7h-.83v-.9h-.72v3.52h.85v.8h-2.75z"/><path id="r" d="M236.32 41.52h3.43v.9h-2.4v1.19h2.22v.89h-2.23v1.25h2.45v.9h-3.47z"/><path id="s" d="M243.92 43.91l.04-.8h-.05l-.82 1.35h-.17l-.86-1.35h-.04l.05.72v2.82h-.95v-5.13h1.01l.88 1.42h.03l.87-1.42h1.01v5.13h-1z"/><path id="t" d="M248.8 45.51h-1.53l-.35 1.14h-1l1.65-5.13h1l1.65 5.13h-1.05zm-1.3-.8h1.1l-.52-1.72h-.06z"/><path id="u" d="M258.16 47.64h-.9v-.99h-3.23v-5.13h1.03v4.24h1.44v-4.24h1.03v4.24h.63z"/><path id="v" d="M262.13 43.94l.06-.67h-.04l-.3.69-1.44 2.69h-.92v-5.13h1v2.66l-.08.69h.05l.31-.71 1.44-2.64h.92v5.13h-1z"/><path id="w" d="M266.12 41.52h.97v.56c.21 0 .41.05.61.11.2.07.38.18.54.34.16.15.28.36.38.63.09.26.14.6.14 1.01 0 .4-.05.74-.14 1-.09.28-.2.5-.36.67-.15.17-.32.3-.53.37-.2.07-.41.12-.64.13v.64h-.97v-.64a2.19 2.19 0 0 1-.64-.13c-.2-.08-.38-.2-.53-.37-.15-.17-.27-.4-.36-.66-.1-.27-.14-.6-.14-1s.05-.73.15-.99a1.47 1.47 0 0 1 .91-.99c.2-.07.4-.11.6-.12zm.05 1.37a.69.69 0 0 0-.57.33c-.11.2-.17.52-.17.97 0 .27.02.49.05.66.04.17.09.3.16.4.06.1.14.18.23.22.1.04.19.07.3.08zm.87 2.66c.1-.01.2-.04.3-.08a.59.59 0 0 0 .24-.21c.06-.1.11-.24.15-.41.04-.17.06-.4.06-.66 0-.45-.06-.77-.18-.97a.7.7 0 0 0-.57-.33z"/><path id="x" d="M270.41 41.64a7.26 7.26 0 0 1 2.23-.06c.26.04.5.13.7.25.21.13.38.3.52.53.13.23.2.53.2.89 0 .32-.06.59-.18.82-.11.22-.26.4-.45.55-.2.15-.4.26-.65.33-.24.06-.5.1-.75.1h-.12a3.09 3.09 0 0 1-.47-.03v1.8h-1.03zm1.53.76a3.66 3.66 0 0 0-.5.04v1.69a.8.8 0 0 0 .09.01l.12.01h.23c.13 0 .27 0 .4-.03a.98.98 0 0 0 .35-.14c.1-.06.2-.16.25-.28.07-.12.1-.27.1-.47 0-.16-.03-.3-.1-.4a.74.74 0 0 0-.23-.26.91.91 0 0 0-.33-.13 1.94 1.94 0 0 0-.38-.04z"/><path id="y" d="M275.38 44.25a5 5 0 0 1 .12-1.15c.08-.34.2-.63.37-.86.16-.23.37-.41.62-.53.25-.13.54-.2.87-.2.37 0 .67.08.92.21.25.14.46.32.61.56.16.24.28.53.35.87.07.33.11.7.11 1.1 0 .85-.16 1.52-.5 2-.32.49-.82.73-1.49.73-.36 0-.66-.07-.92-.2a1.66 1.66 0 0 1-.61-.56 2.48 2.48 0 0 1-.35-.87c-.07-.33-.1-.7-.1-1.1m1.08 0c0 .25.01.5.04.71.02.22.06.41.12.58.07.16.16.29.27.38.12.1.28.14.47.14a.8.8 0 0 0 .44-.1c.11-.08.2-.19.28-.34.07-.15.12-.34.14-.56a6.89 6.89 0 0 0-.1-2.09.9.9 0 0 0-.28-.39.74.74 0 0 0-.48-.15c-.35 0-.59.16-.71.46-.13.3-.19.76-.19 1.36"/><path id="z" d="M284.27 43.17a1.06 1.06 0 0 1-.45.63c-.11.08-.26.14-.42.18v.05c.14.02.28.06.42.12a1.08 1.08 0 0 1 .58.62c.05.15.08.32.08.52a1.34 1.34 0 0 1-.62 1.16c-.2.13-.4.22-.65.28-.24.05-.49.08-.74.08h-.33a8.82 8.82 0 0 1-1.3-.1v-5.08a8.46 8.46 0 0 1 2.27-.06c.23.04.43.1.61.2s.33.22.44.39c.1.16.16.38.16.63 0 .13-.02.25-.05.38zm-2.14.58a5.32 5.32 0 0 0 .48-.03c.19-.05.35-.14.5-.26.13-.11.2-.27.2-.46a.59.59 0 0 0-.08-.3.57.57 0 0 0-.2-.2.88.88 0 0 0-.28-.1c-.1-.03-.22-.04-.33-.04a8.51 8.51 0 0 0-.62.03v1.36zm.69 2.18a.95.95 0 0 0 .3-.14.64.64 0 0 0 .3-.56.65.65 0 0 0-.1-.38.65.65 0 0 0-.25-.21.953.953 0 0 0-.35-.1 3.2 3.2 0 0 0-.38-.02h-.54v1.4c.02.02.06.02.12.03h.17l.2.02h.17c.12 0 .24-.02.36-.04z"/><path id="A" d="M285.97 44.25c0-.43.04-.81.12-1.15.08-.34.2-.63.37-.86.16-.23.37-.41.62-.53.25-.13.54-.2.88-.2.36 0 .66.08.91.21.26.14.46.32.62.56.16.24.27.53.34.87.08.33.11.7.11 1.1 0 .85-.16 1.52-.49 2-.33.49-.83.73-1.5.73-.35 0-.66-.07-.91-.2a1.66 1.66 0 0 1-.62-.56 2.47 2.47 0 0 1-.34-.87c-.07-.33-.1-.7-.1-1.1m1.07 0c0 .25.02.5.04.71.02.22.06.41.13.58.06.16.15.29.27.38.11.1.27.14.47.14a.8.8 0 0 0 .43-.1c.12-.08.21-.19.28-.34.07-.15.12-.34.15-.56a6.84 6.84 0 0 0-.1-2.09.9.9 0 0 0-.28-.39.74.74 0 0 0-.48-.15c-.35 0-.6.16-.72.46-.12.3-.19.76-.19 1.36"/><path id="B" d="M294.08 44.04l.06-.68h-.04l-.3.7-1.44 2.75h-.93v-5.24h1v2.72l-.07.7h.04l.31-.72 1.45-2.7h.91v5.24h-1zm-1.26-3.85c.02.16.07.28.17.35.1.07.22.1.37.1.32 0 .5-.14.54-.44l.8.13a.96.96 0 0 1-.41.69c-.23.14-.54.21-.94.21-.2 0-.38-.01-.55-.04-.16-.03-.3-.08-.43-.15a.87.87 0 0 1-.46-.7z"/><path id="C" d="M218.93 54.5l.03-.8h-.04l-.82 1.35h-.18l-.85-1.34h-.04l.05.72v2.81h-.96v-5.13h1.02l.88 1.42h.03l.87-1.42h1.01v5.13h-1z"/><path id="D" d="M224.14 56.1h-1.53l-.35 1.14h-1l1.65-5.13h1l1.65 5.13h-1.06zm-1.3-.8h1.1l-.52-1.72h-.07z"/><path id="E" d="M227.05 52.07a6.82 6.82 0 0 1 2.22-.06c.26.04.5.13.7.25.22.13.39.3.52.53.13.23.2.52.2.89 0 .31-.06.59-.17.81a1.6 1.6 0 0 1-.46.56c-.19.15-.4.26-.65.32-.24.07-.49.1-.75.1h-.12a2.42 2.42 0 0 1-.35-.01l-.12-.02v1.8h-1.02zm1.52.75a3.47 3.47 0 0 0-.5.04v1.7h.1a2.53 2.53 0 0 0 .25.02h.1c.13 0 .26 0 .4-.03a.96.96 0 0 0 .35-.14.7.7 0 0 0 .25-.28 1 1 0 0 0 .09-.47.74.74 0 0 0-.33-.66.92.92 0 0 0-.33-.14 1.95 1.95 0 0 0-.38-.04z"/><path id="F" d="M233.75 55.1h-.54v2.14h-1.03v-5.13h1.03v2.1h.54l1.2-2.1h1.18l-1.49 2.48 1.68 2.65h-1.28z"/><path id="G" d="M240.12 54.53l.06-.67h-.04l-.3.7-1.44 2.68h-.93v-5.13h1v2.66l-.07.69h.04l.32-.71 1.44-2.64h.92v5.13h-1z"/><path id="H" d="M242.94 52.07a6.82 6.82 0 0 1 2.22-.06c.26.04.5.13.7.25.22.13.39.3.52.53.13.23.2.52.2.89 0 .31-.06.59-.17.81a1.6 1.6 0 0 1-.46.56c-.19.15-.4.26-.65.32-.24.07-.49.1-.75.1h-.12a2.46 2.46 0 0 1-.47-.03v1.8h-1.02zm1.52.75a3.52 3.52 0 0 0-.5.04v1.7h.09a2.5 2.5 0 0 0 .26.02h.1c.13 0 .26 0 .4-.03a.96.96 0 0 0 .35-.14.7.7 0 0 0 .25-.28 1 1 0 0 0 .1-.47c0-.16-.04-.3-.1-.4a.73.73 0 0 0-.23-.26.9.9 0 0 0-.34-.14 1.96 1.96 0 0 0-.38-.04z"/><path id="I" d="M248.07 54.68a5 5 0 0 1 .12-1.15c.08-.34.2-.63.37-.86.16-.23.37-.41.62-.54.25-.12.54-.19.87-.19a1.68 1.68 0 0 1 1.53.77c.16.24.28.53.35.86.07.34.11.7.11 1.1 0 .86-.16 1.53-.5 2.01-.32.48-.82.73-1.49.73-.36 0-.66-.07-.92-.2a1.67 1.67 0 0 1-.61-.57 2.47 2.47 0 0 1-.35-.86c-.07-.34-.1-.7-.1-1.1m1.08 0c0 .25.01.49.03.7.03.23.07.42.13.58.07.17.16.3.27.39.12.1.28.14.47.14.18 0 .32-.04.44-.1.12-.08.2-.2.28-.34.07-.15.12-.34.15-.57a7.03 7.03 0 0 0-.1-2.08.92.92 0 0 0-.28-.4.74.74 0 0 0-.49-.14c-.35 0-.59.15-.71.46-.13.3-.19.76-.19 1.36"/><path id="J" d="M256.96 53.6a1.06 1.06 0 0 1-.45.63c-.11.08-.26.14-.42.18v.04c.14.03.28.07.42.13a1.09 1.09 0 0 1 .58.62c.05.14.08.32.08.52a1.34 1.34 0 0 1-.62 1.16c-.2.12-.4.21-.65.27a3.1 3.1 0 0 1-.75.1h-.32a8.2 8.2 0 0 1-1.3-.12v-5.07a10.63 10.63 0 0 1 1.57-.12c.24 0 .47.02.7.06.23.04.43.1.61.2.18.09.33.22.44.39.1.16.16.37.16.63 0 .13-.02.25-.05.38zm-2.14.58a4.79 4.79 0 0 0 .48-.03c.19-.06.35-.14.49-.26s.2-.27.2-.46a.6.6 0 0 0-.07-.31.57.57 0 0 0-.2-.2.83.83 0 0 0-.28-.1 7.26 7.26 0 0 0-.95 0v1.36zm.69 2.17a.96.96 0 0 0 .3-.13.64.64 0 0 0 .3-.56.65.65 0 0 0-.1-.38.66.66 0 0 0-.25-.21.953.953 0 0 0-.35-.1 3.38 3.38 0 0 0-.38-.02h-.54v1.4l.12.02.17.02a15 15 0 0 1 .37 0c.12 0 .24 0 .36-.04z"/><path id="K" d="M260.4 55.1h-.54v2.14h-1.03v-5.13h1.03v2.1h.53l1.2-2.1h1.19l-1.49 2.48 1.67 2.65h-1.27z"/><path id="L" d="M266.77 54.53l.05-.67h-.03l-.3.7-1.44 2.68h-.93v-5.13h1v2.66l-.07.69h.04l.31-.71 1.45-2.64h.91v5.13h-1z"/><path id="M" d="M125.99 29.74a2.29 2.29 0 0 1 2.28 2.29v5.68h4.76v-5.68c0-3.9-3.16-7.06-7.04-7.06h-5.7v4.77z"/><path id="N" d="M128.27 56a2.28 2.28 0 0 1-2.28 2.28h-5.7v4.75h5.7a7.05 7.05 0 0 0 7.04-7.03v-5.7h-4.76z"/><path id="O" d="M99.73 32.03a2.29 2.29 0 0 1 2.28-2.3h5.7v-4.76h-5.7a7.06 7.06 0 0 0-7.04 7.06v5.68h4.76z"/><path id="P" d="M102.01 58.28A2.29 2.29 0 0 1 99.73 56v-5.7h-4.76V56a7.05 7.05 0 0 0 7.04 7.03h5.7v-4.75z"/><path id="Q" d="M111.26 55.42l-10.17-10.17 3.36-3.37 6.8 6.8 12.3-12.3 3.36 3.37z"/><path id="R" d="M157.2 50.67c.66.76 1 1.68 1 2.76 0 .88-.24 1.7-.72 2.45a5.01 5.01 0 0 1-2.16 1.83c-.97.46-2.17.69-3.6.69a12.9 12.9 0 0 1-3.11-.38 9.22 9.22 0 0 1-2.67-1.1l1.53-3.17a7.68 7.68 0 0 0 4.12 1.24c.72 0 1.3-.14 1.72-.4.42-.28.64-.66.64-1.16 0-.96-.76-1.45-2.27-1.45h-1.77v-2.67l2.66-2.88h-5.86v-3.26h10.74v2.65l-3.08 3.32c1.23.26 2.18.77 2.84 1.53"/><path id="S" d="M174.74 43.17v14.9h-4.23v-5.81h-5.77v5.8h-4.23V43.18h4.23v5.6h5.77v-5.6z"/><path id="T" d="M188.24 43.68a5.94 5.94 0 0 1 2.5 2.46c.6 1.07.89 2.36.89 3.87v8.06h-4.23v-3.3h-5.84v3.3h-4.17V50c0-1.5.3-2.8.89-3.87a5.94 5.94 0 0 1 2.5-2.46 7.96 7.96 0 0 1 3.73-.84c1.41 0 2.65.28 3.73.84zm-.84 7.82v-1.86c0-1.09-.27-1.91-.8-2.47a2.78 2.78 0 0 0-2.11-.83c-.9 0-1.61.28-2.14.83-.52.56-.79 1.38-.79 2.47v1.86z"/><path id="U" d="M198.47 51v7.07h-4.2v-14.9h4.2v7.06h.1l5.24-7.06h5.03l-5.74 7.2 5.9 7.7h-5.46z"/><path id="V" d="M153.56 30.92v7.62h-2.57V36.1c-.51.15-.98.23-1.4.23-1.13 0-2-.26-2.6-.8-.58-.52-.88-1.3-.88-2.31v-2.3h2.56v2.02c0 .46.1.8.31 1.02.2.23.52.34.94.34.44 0 .8-.06 1.07-.18v-3.2z"/><path id="W" d="M161.5 36.6v1.94h-6.29v-7.62h6.15v1.94h-3.64v.9h3.2v1.84h-3.2v1z"/><path id="X" d="M164.76 38.03a3.81 3.81 0 0 1-2.1-3.46 3.83 3.83 0 0 1 2.1-3.47c.66-.34 1.4-.5 2.21-.5.75 0 1.42.12 2.01.38.6.26 1.08.64 1.46 1.13l-1.64 1.45a2.13 2.13 0 0 0-1.7-.9c-.54 0-.98.18-1.31.52-.33.35-.5.8-.5 1.39 0 .57.17 1.04.5 1.38.33.34.77.51 1.31.51.65 0 1.22-.3 1.7-.88l1.64 1.44c-.38.49-.87.87-1.46 1.13-.59.26-1.26.39-2 .39-.83 0-1.56-.17-2.22-.5"/><path id="Y" d="M178.22 32.92H176v5.62h-2.51v-5.62h-2.22v-2h6.95z"/><path id="Z" d="M187 30.92v7.62h-2.61v-2.8h-2.4v2.8h-2.61v-7.62h2.6v2.7h2.4v-2.7z"/><path id="aa" d="M195.98 35.78c0 .89-.3 1.57-.9 2.05-.6.47-1.4.7-2.44.7h-3.83v-7.6h2.56v2.33h1.6c.96 0 1.7.21 2.23.64.52.42.78 1.05.78 1.88zm-2.62.04c0-.51-.3-.76-.9-.76h-1.09v1.68h1.1a.9.9 0 0 0 .64-.24.9.9 0 0 0 .25-.68zm3.32-4.9h2.56v7.62h-2.56z"/><path id="ab" d="M200.9 30.92h2.54v3.96l2.64-3.96h2.43v7.62h-2.54v-3.96l-2.63 3.96h-2.44zm1.97-.9c-.38-.32-.56-.79-.56-1.41h1.72c0 .24.05.42.15.53.1.1.27.17.52.17s.42-.06.53-.17c.1-.1.16-.29.16-.53h1.72c0 .62-.2 1.09-.57 1.4-.38.31-1 .47-1.84.47-.85 0-1.46-.16-1.83-.47z"/></defs><use fill="#eae60e" xlink:href="#a" transform="translate(-90 -20)"/><use fill="#63666a" xlink:href="#b" transform="translate(-90 -20)"/><use fill="#63666a" xlink:href="#c" transform="translate(-90 -20)"/><use fill="#63666a" xlink:href="#d" transform="translate(-90 -20)"/><use fill="#63666a" xlink:href="#e" transform="translate(-90 -20)"/><use fill="#63666a" xlink:href="#f" transform="translate(-90 -20)"/><use fill="#63666a" xlink:href="#g" transform="translate(-90 -20)"/><use fill="#63666a" xlink:href="#h" transform="translate(-90 -20)"/><use fill="#63666a" xlink:href="#i" transform="translate(-90 -20)"/><use fill="#63666a" xlink:href="#j" transform="translate(-90 -20)"/><use fill="#63666a" xlink:href="#k" transform="translate(-90 -20)"/><use fill="#63666a" xlink:href="#l" transform="translate(-90 -20)"/><use fill="#63666a" xlink:href="#m" transform="translate(-90 -20)"/><use fill="#63666a" xlink:href="#n" transform="translate(-90 -20)"/><use fill="#63666a" xlink:href="#o" transform="translate(-90 -20)"/><use fill="#63666a" xlink:href="#p" transform="translate(-90 -20)"/><use fill="#63666a" xlink:href="#q" transform="translate(-90 -20)"/><use fill="#63666a" xlink:href="#r" transform="translate(-90 -20)"/><use fill="#63666a" xlink:href="#s" transform="translate(-90 -20)"/><use fill="#63666a" xlink:href="#t" transform="translate(-90 -20)"/><use fill="#63666a" xlink:href="#u" transform="translate(-90 -20)"/><use fill="#63666a" xlink:href="#v" transform="translate(-90 -20)"/><use fill="#63666a" xlink:href="#w" transform="translate(-90 -20)"/><use fill="#63666a" xlink:href="#x" transform="translate(-90 -20)"/><use fill="#63666a" xlink:href="#y" transform="translate(-90 -20)"/><use fill="#63666a" xlink:href="#z" transform="translate(-90 -20)"/><use fill="#63666a" xlink:href="#A" transform="translate(-90 -20)"/><use fill="#63666a" xlink:href="#B" transform="translate(-90 -20)"/><use fill="#63666a" xlink:href="#C" transform="translate(-90 -20)"/><use fill="#63666a" xlink:href="#D" transform="translate(-90 -20)"/><use fill="#63666a" xlink:href="#E" transform="translate(-90 -20)"/><use fill="#63666a" xlink:href="#F" transform="translate(-90 -20)"/><use fill="#63666a" xlink:href="#G" transform="translate(-90 -20)"/><use fill="#63666a" xlink:href="#H" transform="translate(-90 -20)"/><use fill="#63666a" xlink:href="#I" transform="translate(-90 -20)"/><use fill="#63666a" xlink:href="#J" transform="translate(-90 -20)"/><use fill="#63666a" xlink:href="#K" transform="translate(-90 -20)"/><use fill="#63666a" xlink:href="#L" transform="translate(-90 -20)"/><use fill="#63666a" xlink:href="#M" transform="translate(-90 -20)"/><use fill="#63666a" xlink:href="#N" transform="translate(-90 -20)"/><use fill="#63666a" xlink:href="#O" transform="translate(-90 -20)"/><use fill="#63666a" xlink:href="#P" transform="translate(-90 -20)"/><use fill="#63666a" xlink:href="#Q" transform="translate(-90 -20)"/><use fill="#63666a" xlink:href="#R" transform="translate(-90 -20)"/><use fill="#63666a" xlink:href="#S" transform="translate(-90 -20)"/><use fill="#63666a" xlink:href="#T" transform="translate(-90 -20)"/><use fill="#63666a" xlink:href="#U" transform="translate(-90 -20)"/><use fill="#63666a" xlink:href="#V" transform="translate(-90 -20)"/><use fill="#63666a" xlink:href="#W" transform="translate(-90 -20)"/><use fill="#63666a" xlink:href="#X" transform="translate(-90 -20)"/><use fill="#63666a" xlink:href="#Y" transform="translate(-90 -20)"/><use fill="#63666a" xlink:href="#Z" transform="translate(-90 -20)"/><use fill="#63666a" xlink:href="#aa" transform="translate(-90 -20)"/><use fill="#63666a" xlink:href="#ab" transform="translate(-90 -20)"/></svg>