<?xml version="1.0" encoding="UTF-8"?>
<svg width="119px" height="49px" viewBox="0 0 119 49" version="1.1" xmlns="http://www.w3.org/2000/svg" xmlns:xlink="http://www.w3.org/1999/xlink">
    <!-- Generator: sketchtool 59 (101010) - https://sketch.com -->
    <title>68360531-64D2-4CDD-8B4F-A2B25D311E1C</title>
    <desc>Created with sketchtool.</desc>
    <g id="Актуальное" stroke="none" stroke-width="1" fill="none" fill-rule="evenodd">
        <g id="Main_desktop" transform="translate(-238.000000, -38.000000)" fill="#1C1B28" fill-rule="nonzero">
            <g id="hader">
                <g id="logo" transform="translate(238.000000, 38.000000)">
                    <g id="z_domrf_logo_showroom-(1)">
                        <rect id="Rectangle" x="0.0112299473" y="28.8085552" width="48.9101609" height="2.86737962"></rect>
                        <path d="M0.0112299473,48.9962576 L3.00588231,48.9962576 L3.00588231,45.7470596 L20.1352938,45.7470596 L20.1352938,34.5395726 L0.0112299473,34.5395726 L0.0112299473,48.9962576 Z M3.00213918,37.4069523 L17.1368992,37.4069523 L17.1368992,42.8796794 L3.00213918,42.8796794 L3.00213918,37.4069523 Z" id="Shape"></path>
                        <path d="M23.0625666,45.7470596 L34.4010694,45.7470596 L34.4010694,48.9962576 L37.5229946,48.9962576 L37.5229946,45.7470596 L48.9213904,45.7470596 L48.9213904,34.5395726 L23.0625666,34.5395726 L23.0625666,45.7470596 Z M37.5229944,37.4069523 L45.9267379,37.4069523 L45.9267379,42.8796794 L37.5229944,42.8796794 L37.5229944,37.4069523 Z M26.0572191,37.4069523 L34.4010694,37.4069523 L34.4010694,42.8796794 L26.0609624,42.8796794 L26.0609624,37.4069523 L26.0572191,37.4069523 Z" id="Shape"></path>
                        <path d="M25.9673798,0.0224598939 L14.4604278,0.0224598939 L14.4604278,25.9823529 L25.9673798,25.9823529 L25.9673798,0.0224598939 L25.9673798,0.0224598939 Z M22.9652407,23.0999991 L17.4625668,23.0999991 L17.4625668,2.90106958 L22.9614974,2.90106958 L22.9614974,23.0999991 L22.9652407,23.0999991 Z" id="Shape"></path>
                        <polygon id="Path" points="31.9155095 8.65828877 37.4144403 2.90106952 37.4144403 25.9823529 40.4165794 25.9823529 40.4165794 8.65828877 45.9155102 2.90106952 45.9155102 25.9823529 48.9213927 25.9823529 48.9213927 0.0224598939 44.6989326 0.0224598939 40.4165794 4.49197861 40.4165794 0.0224598939 36.1978626 0.0224598939 28.9058837 7.56898396 28.9058837 25.9823529 31.9155095 25.9823529"></polygon>
                        <path d="M8.51229955,25.9823529 L11.5181819,25.9823529 L11.5181819,23.1037433 L11.5181819,0.0224598939 L7.29946531,0.0224598939 L0.0112299473,7.56898396 L0.0112299473,23.1037433 L0.0112299473,25.9823529 L3.01711233,25.9823529 L8.51229955,25.9823529 L8.51229955,25.9823529 Z M3.0171125,8.65828857 L8.51229994,2.90106958 L8.51229994,23.0999991 L3.0171125,23.0999991 L3.0171125,8.65828857 Z" id="Shape"></path>
                        <g id="Group" transform="translate(61.427809, 0.112299)">
                            <path d="M6.54331587,6.54331559 L1.94652417,6.54331559 C1.60962576,7.50160437 1.28395729,8.46363647 0.973262086,9.45187177 L0.0112299473,9.45187177 C1.09304819,6.30000008 2.25721938,3.17433159 3.56737988,0.0262032081 L5.22941205,0.0262032081 C6.29625703,3.20427811 7.63636406,6.84278083 8.77433204,9.45187177 L7.67754053,9.45187177 C7.31443891,8.54224609 6.92139076,7.56898405 6.54331587,6.54331559 Z M4.16256691,0.782352969 C3.48502678,2.45935828 2.83743318,4.09518712 2.242246,5.73101596 L6.24759371,5.73101596 C5.66737979,4.13636359 5.08342255,2.42941175 4.55561505,0.782352969 L4.16256691,0.782352969 L4.16256691,0.782352969 Z" id="Shape"></path>
                            <path d="M10.5786102,9.45187143 L10.5786102,0.0224598939 L14.7860968,0.0224598939 C16.8823535,0.0224598939 17.4625674,1.4561497 17.4625674,3.08074859 C17.4625674,4.55561486 16.8000005,5.98930467 14.8534765,5.98930467 L11.5518722,5.98930467 L11.5518722,9.45187143 L10.5786102,9.45187143 L10.5786102,9.45187143 Z M14.7711237,5.12085564 C15.8791451,5.12085564 16.3807494,4.26737971 16.3807494,3.06577543 C16.3807494,1.67326206 15.8529419,0.834759388 14.8385033,0.834759388 L11.5518722,0.834759388 L11.5518722,5.12085564 L14.7711237,5.12085564 Z" id="Shape"></path>
                            <polygon id="Path" points="25.9786092 0.0224598939 25.9786092 0.834759369 20.5021387 0.834759369 20.5021387 3.99786101 24.3839568 3.99786101 24.3839568 4.81016049 20.5021387 4.81016049 20.5021387 8.63582898 25.9786092 8.63582898 25.9786092 9.44812846 19.5251333 9.44812846 19.5251333 0.0224598939"></polygon>
                            <polygon id="Path" points="28.9470592 9.45187143 27.9737972 9.45187143 27.9737972 0.0224598939 28.9470592 0.0224598939 28.9470592 3.9566844 33.951872 3.9566844 33.951872 0.0224598939 34.9139041 0.0224598939 34.9139041 9.44812811 33.951872 9.44812811 33.951872 4.84010684 28.9470592 4.84010684"></polygon>
                            <path d="M46.993584,8.63957202 L46.7240653,11.5331549 L45.8967925,11.5331549 L45.8967925,9.45187147 L37.7812841,9.45187147 L37.7812841,11.5331549 L36.9465247,11.5331549 L36.677006,8.63957202 L38.0695194,8.63957202 C39.0577548,6.31497314 39.5294125,3.45882346 39.6791452,0.0262032081 L45.2641722,0.0262032081 L45.2641722,8.63957202 L46.993584,8.63957202 Z M44.3021398,0.834759372 L40.5700542,0.834759372 C40.4203216,3.45882354 40.0422467,6.27005349 39.203744,8.63957221 L44.3021398,8.63957221 L44.3021398,0.834759372 Z" id="Shape"></path>
                            <path d="M54.6411764,6.54331559 L50.0443847,6.54331559 C49.7074863,7.50160437 49.3818178,8.46363647 49.0711226,9.45187177 L48.1090905,9.45187177 C49.1909087,6.30000008 50.3550799,3.17433159 51.6652404,0.0262032081 L53.3272726,0.0262032081 C54.3941176,3.20427811 55.7342246,6.84278083 56.8721926,9.45187177 L55.7754011,9.45187177 C55.4122995,8.54224609 55.0192513,7.56898405 54.6411764,6.54331559 Z M52.2604275,0.782352969 C51.5828873,2.45935828 50.9352937,4.09518712 50.3401065,5.73101596 L54.3454543,5.73101596 C53.7652403,4.13636359 53.1812831,2.42941175 52.6534756,0.782352969 L52.2604275,0.782352969 L52.2604275,0.782352969 Z" id="Shape"></path>
                        </g>
                        <path d="M71.5834241,26.8882356 L71.3139054,29.7818184 L70.4866326,29.7818184 L70.4866326,27.700535 L62.371124,27.700535 L62.371124,29.7818184 L61.5326212,29.7818184 L61.2631025,26.8882356 L62.655616,26.8882356 C63.6438513,24.5636367 64.1155091,21.707487 64.2652417,18.2748668 L69.8502689,18.2748668 L69.8502689,26.8882356 L71.5834241,26.8882356 Z M68.8919795,19.0834229 L65.159894,19.0834229 C65.0101613,21.7074871 64.6320865,24.518717 63.7935838,26.8882358 L68.8919795,26.8882358 L68.8919795,19.0834229 Z" id="Shape"></path>
                        <path d="M76.2139069,19.0834227 C76.0229978,23.7475937 75.075939,27.8877005 73.1181849,27.8877005 L72.9160458,26.955615 C74.3497357,26.955615 75.1320887,23.2497327 75.2705914,18.2711232 L80.6946558,18.2711232 L80.6946558,27.6967914 L79.7326237,27.6967914 L79.7326237,19.0834227 L76.2139069,19.0834227 Z" id="Path"></path>
                        <path d="M90.0005358,18.2711232 L90.0005358,27.6967918 L89.0272737,27.6967918 L89.0272737,23.6128345 L87.2417121,23.6128345 C86.0101612,23.6128345 85.0631023,24.0994655 83.8465247,27.6967918 L82.6973268,27.6967918 C84.0898403,24.2604281 84.7000007,23.6652409 85.8342254,23.4368987 C83.7641718,23.4368987 83.1165782,22.3288773 83.1165782,21.0037436 C83.1165782,19.5550805 83.6967921,18.2711232 85.7930489,18.2711232 L90.0005358,18.2711232 L90.0005358,18.2711232 Z M85.7930488,19.0834227 C84.763637,19.0834227 84.1983963,19.7609628 84.1983963,20.9887704 C84.1983963,22.0705886 84.752407,22.7593586 85.8604284,22.7593586 L89.0272735,22.7593586 L89.0272735,19.0796794 L85.7930488,19.0796794 L85.7930488,19.0834227 Z" id="Shape"></path>
                        <path d="M61.6449234,45.7508015 C63.4566882,41.3299459 64.3101641,40.9219246 65.4855652,40.5700529 C64.972731,40.1770048 63.632624,38.7582883 61.7909127,36.3213899 L62.9550839,36.3213899 C64.4561534,38.4326198 66.0133727,40.1208551 66.8219289,40.8133684 L66.8219289,36.3213899 L67.795191,36.3213899 L67.795191,40.8133684 C68.5925172,40.1358283 70.1609665,38.4326198 71.6770093,36.3213899 L72.8411804,36.3213899 C71.0032125,38.7545449 69.6631055,40.1770048 69.1465279,40.5700529 C70.321929,40.9219246 71.175405,41.3262026 72.9871697,45.7508015 L71.9315547,45.7508015 C70.4716616,41.9101598 69.5770092,41.2213898 67.7914477,41.0866304 L67.7914477,45.7508015 L66.8181856,45.7508015 L66.8181856,41.0866304 C65.0326241,41.2363631 64.1417149,41.9251331 62.6930518,45.7508015 L61.6449234,45.7508015 Z" id="Path"></path>
                        <path d="M75.7684505,44.7251347 C77.5802153,41.9251347 79.2834239,39.0839582 80.7732636,36.3251346 L81.9374348,36.3251346 L81.9374348,45.7508032 L80.9754026,45.7508032 L80.9754026,37.7326213 C79.4893063,40.4240651 77.7973276,43.2652416 76.1203222,45.7508032 L74.7951884,45.7508032 L74.7951884,36.3251346 L75.7684505,36.3251346 L75.7684505,44.7251347 Z" id="Path"></path>
                        <path d="M90.9775425,43.156684 C90.9775425,45.2529407 89.6786121,45.9417108 87.1481308,45.9417108 C86.189842,45.9417108 84.943318,45.7508017 84.1310185,45.5486626 L84.3631041,44.7625664 C85.1192538,44.9946519 86.2422484,45.114438 87.1481308,45.114438 C89.2593607,45.114438 89.9331575,44.5604274 89.9331575,43.1267375 C89.9331575,41.6406413 89.2705907,41.0978605 87.4438527,41.0978605 L86.0962591,41.0978605 L86.0962591,40.3005343 L87.447596,40.3005343 C89.2069543,40.3005343 89.7197885,39.7727268 89.7197885,38.5149728 C89.7197885,37.3770049 89.2593607,36.9203204 87.1481308,36.9203204 C86.2572217,36.9203204 85.1342271,37.0550798 84.4716602,37.2721921 L84.2283447,36.4598926 C84.9844944,36.29893 86.0663126,36.096791 87.1481308,36.096791 C89.7871682,36.096791 90.7192538,36.8791439 90.7192538,38.3951867 C90.7192538,39.5181814 90.460965,40.5326199 88.7839597,40.6823525 C90.5732645,40.7609621 90.9775425,41.8689835 90.9775425,43.156684 Z" id="Path"></path>
                        <polygon id="Path" points="94.2304858 45.7508032 93.2572238 45.7508032 93.2572238 36.3251346 94.2304858 36.3251346 94.2304858 40.2593593 99.2352987 40.2593593 99.2352987 36.3251346 100.197331 36.3251346 100.197331 45.7508032 99.2352987 45.7508032 99.2352987 41.1390384 94.2304858 41.1390384"></polygon>
                        <path d="M103.850807,44.7251347 C105.662572,41.9251347 107.36578,39.0839582 108.85562,36.3251346 L110.019791,36.3251346 L110.019791,45.7508032 L109.057759,45.7508032 L109.057759,37.7326213 C107.571663,40.4240651 105.879684,43.2652416 104.202679,45.7508032 L102.877545,45.7508032 L102.877545,36.3251346 L103.850807,36.3251346 L103.850807,44.7251347 Z" id="Path"></path>
                    </g>
                </g>
            </g>
        </g>
    </g>
</svg>