<svg width="247" height="34" viewBox="0 0 247 34" fill="none" xmlns="http://www.w3.org/2000/svg">
<g clip-path="url(#clip0)">
<path d="M99.357 10.105L103.919 6.66301H88.649V27.339H103.919V23.896H93.007V18.605H102.314V15.16H93.007V10.105H99.357Z" fill="#21A038"/>
<path d="M77.12 14.723H71.8201V10.105H80.2851L84.849 6.66301H67.4641V27.339H76.564C81.664 27.339 84.5941 24.972 84.5941 20.839C84.5921 16.897 81.939 14.723 77.12 14.723ZM76.3621 23.896H71.8201V18.164H76.3641C79.1301 18.164 80.418 19.122 80.418 21.029C80.42 22.978 79.055 23.896 76.366 23.896H76.3621Z" fill="#21A038"/>
<path d="M116.288 6.66301H107.975V27.339H112.333V21.482H116.289C121.594 21.482 124.889 18.626 124.889 14.062C124.889 9.49801 121.594 6.66301 116.288 6.66301ZM116.195 18.04H112.332V10.105H116.194C118.986 10.105 120.524 11.514 120.524 14.072C120.524 16.63 118.988 18.039 116.195 18.039V18.04Z" fill="#21A038"/>
<path d="M59.983 22.858C58.8331 23.4975 57.5378 23.8298 56.222 23.823C55.3209 23.8504 54.4238 23.6922 53.5863 23.3585C52.7489 23.0247 51.9889 22.5224 51.3537 21.8827C50.7184 21.243 50.2213 20.4796 49.8934 19.6399C49.5654 18.8001 49.4135 17.9019 49.447 17.001C49.4129 16.0993 49.5645 15.2003 49.8925 14.3597C50.2206 13.5191 50.718 12.755 51.3538 12.1148C51.9897 11.4746 52.7505 10.9721 53.5888 10.6384C54.4271 10.3047 55.3252 10.1469 56.227 10.175C57.6511 10.1555 59.0426 10.6014 60.19 11.445L63.315 9.08701L63.108 8.90201C61.1534 7.21192 58.6359 6.31629 56.053 6.39201C53.1925 6.32857 50.4201 7.38331 48.325 9.33201C47.3316 10.3197 46.5486 11.4984 46.0233 12.7971C45.4981 14.0958 45.2415 15.4874 45.269 16.888C45.2449 18.3042 45.5015 19.7112 46.0241 21.0277C46.5468 22.3441 47.3251 23.544 48.314 24.558C49.3336 25.5518 50.54 26.3336 51.8635 26.8583C53.1871 27.383 54.6015 27.6402 56.025 27.615C57.4656 27.6617 58.8997 27.4043 60.2341 26.8595C61.5684 26.3146 62.7729 25.4947 63.769 24.453L60.947 22.322L59.983 22.858Z" fill="#21A038"/>
<path d="M30.802 6.60701C31.6191 7.64904 32.3108 8.78349 32.863 9.98701L17.194 21.402L10.649 17.345V12.465L17.194 16.522L30.802 6.60701Z" fill="#21A038"/>
<path d="M3.97103 17C3.97103 16.781 3.97703 16.563 3.98803 16.346L0.0210274 16.146C0.00702744 16.427 -0.000972557 16.711 -0.000972557 16.995C-0.00251622 19.2337 0.442128 21.4502 1.30698 23.515C2.17183 25.5799 3.43954 27.4517 5.03603 29.021L7.84903 26.242C6.62116 25.0363 5.64583 23.5981 4.97999 22.0112C4.31415 20.4244 3.97116 18.7208 3.97103 17V17Z" fill="url(#paint0_linear)"/>
<path d="M17.194 3.92701C17.416 3.92701 17.636 3.93501 17.855 3.94501L18.055 0.0210068C17.771 0.00700681 17.484 6.80888e-06 17.196 6.80888e-06C12.6439 -0.0112295 8.27222 1.77866 5.03503 4.97901L7.84803 7.75601C10.3363 5.29674 13.6956 3.92046 17.194 3.92701Z" fill="url(#paint1_linear)"/>
<path d="M17.194 30.074C16.972 30.074 16.752 30.068 16.533 30.057L16.333 33.979C16.617 33.993 16.904 34 17.192 34C21.7434 34.0107 26.1143 32.2209 29.351 29.021L26.54 26.24C24.0526 28.7012 20.6932 30.0793 17.194 30.074V30.074Z" fill="url(#paint2_linear)"/>
<path d="M24.649 6.209L27.993 3.772C24.9272 1.32274 21.1179 -0.00782161 17.194 3.80372e-06V3.80372e-06V3.927C19.8516 3.92263 22.4491 4.71774 24.649 6.209V6.209Z" fill="url(#paint3_linear)"/>
<path d="M34.39 17C34.3905 15.9788 34.2985 14.9596 34.115 13.955L30.415 16.655C30.415 16.771 30.415 16.887 30.415 17.004C30.4137 18.8351 30.0249 20.6452 29.2742 22.3152C28.5234 23.9853 27.4277 25.4776 26.059 26.694L28.728 29.61C30.5089 28.0273 31.9343 26.0852 32.9102 23.9117C33.8861 21.7382 34.3905 19.3826 34.39 17Z" fill="#21A038"/>
<path d="M17.195 30.073C15.3519 30.0757 13.5284 29.694 11.841 28.9524C10.1537 28.2109 8.63943 27.1256 7.39501 25.766L4.44501 28.404C6.06446 30.172 8.03491 31.5828 10.2305 32.5462C12.426 33.5096 14.7984 34.0044 17.196 33.999V30.073H17.195Z" fill="url(#paint4_linear)"/>
<path d="M8.327 7.311L5.659 4.395C3.87958 5.97768 2.45537 7.91912 1.48001 10.0917C0.504657 12.2642 0.000263083 14.6186 0 17H3.972C3.97304 15.1691 4.36164 13.3592 5.11225 11.6893C5.86285 10.0193 6.95845 8.52721 8.327 7.311V7.311Z" fill="url(#paint5_linear)"/>
<path d="M146.312 10.658H147.326C148.713 10.658 149.943 10.84 151.018 11.204C152.093 11.568 152.994 12.0967 153.722 12.79C154.467 13.4833 155.031 14.3327 155.412 15.338C155.793 16.326 155.984 17.444 155.984 18.692C155.984 20.0267 155.785 21.1967 155.386 22.202C154.987 23.2073 154.407 24.048 153.644 24.724C152.881 25.4 151.945 25.9113 150.836 26.258C149.744 26.6047 148.496 26.778 147.092 26.778H146.312V28.52H143.972V26.778H142.958C140.167 26.778 138.027 26.0673 136.536 24.646C135.045 23.2247 134.3 21.2573 134.3 18.744C134.3 17.4093 134.499 16.2393 134.898 15.234C135.297 14.2287 135.877 13.388 136.64 12.712C137.403 12.036 138.33 11.5247 139.422 11.178C140.531 10.8313 141.788 10.658 143.192 10.658H143.972V9.28H146.312V10.658ZM136.744 18.536C136.744 19.628 136.891 20.5727 137.186 21.37C137.498 22.15 137.931 22.8 138.486 23.32C139.041 23.84 139.708 24.23 140.488 24.49C141.268 24.7327 142.135 24.854 143.088 24.854H143.972V12.582H143.14C141.996 12.582 141.017 12.7207 140.202 12.998C139.405 13.258 138.746 13.648 138.226 14.168C137.706 14.6707 137.325 15.2947 137.082 16.04C136.857 16.768 136.744 17.6 136.744 18.536ZM146.312 12.582V24.854H147.144C148.288 24.854 149.259 24.724 150.056 24.464C150.871 24.1867 151.538 23.7967 152.058 23.294C152.578 22.774 152.951 22.15 153.176 21.422C153.419 20.6767 153.54 19.836 153.54 18.9C153.54 17.808 153.384 16.872 153.072 16.092C152.777 15.2947 152.353 14.636 151.798 14.116C151.243 13.596 150.576 13.2147 149.796 12.972C149.016 12.712 148.149 12.582 147.196 12.582H146.312ZM159.561 15.988C159.995 15.6587 160.584 15.3727 161.329 15.13C162.092 14.87 162.976 14.74 163.981 14.74C164.813 14.74 165.559 14.818 166.217 14.974C166.876 15.13 167.431 15.39 167.881 15.754C168.349 16.118 168.705 16.6033 168.947 17.21C169.19 17.7993 169.311 18.536 169.311 19.42V28H167.257V25.79C166.911 26.518 166.347 27.1073 165.567 27.558C164.805 27.9913 163.903 28.208 162.863 28.208C161.563 28.208 160.523 27.87 159.743 27.194C158.963 26.518 158.573 25.5127 158.573 24.178C158.573 23.4673 158.695 22.878 158.937 22.41C159.197 21.9247 159.561 21.5433 160.029 21.266C160.497 20.9713 161.069 20.772 161.745 20.668C162.421 20.5467 163.193 20.486 164.059 20.486H167.153V19.446C167.153 18.8913 167.075 18.432 166.919 18.068C166.763 17.704 166.547 17.418 166.269 17.21C165.992 16.9847 165.654 16.8287 165.255 16.742C164.874 16.6553 164.449 16.612 163.981 16.612C162.959 16.612 162.075 16.8373 161.329 17.288C160.601 17.7387 160.012 18.328 159.561 19.056V15.988ZM163.409 26.206C164.068 26.206 164.623 26.1107 165.073 25.92C165.541 25.7293 165.923 25.504 166.217 25.244C166.512 24.9667 166.729 24.6807 166.867 24.386C167.023 24.0913 167.119 23.8313 167.153 23.606V22.202H164.137C162.959 22.202 162.101 22.3233 161.563 22.566C161.043 22.8087 160.783 23.3027 160.783 24.048C160.783 24.6893 161 25.2093 161.433 25.608C161.867 26.0067 162.525 26.206 163.409 26.206ZM184.188 10.294C183.928 10.4327 183.477 10.5367 182.836 10.606C182.212 10.6753 181.362 10.7533 180.288 10.84C179.109 10.9267 178.147 11.1433 177.402 11.49C176.674 11.8367 176.093 12.3047 175.66 12.894C175.226 13.4833 174.914 14.194 174.724 15.026C174.533 15.8407 174.394 16.768 174.308 17.808C174.914 16.872 175.668 16.17 176.57 15.702C177.471 15.234 178.476 15 179.586 15C180.435 15 181.215 15.1127 181.926 15.338C182.636 15.546 183.243 15.9013 183.746 16.404C184.266 16.8893 184.664 17.5393 184.942 18.354C185.236 19.1513 185.384 20.1393 185.384 21.318C185.384 23.6407 184.829 25.3827 183.72 26.544C182.628 27.688 181.05 28.26 178.988 28.26C176.769 28.26 175.122 27.5753 174.048 26.206C172.973 24.8193 172.436 22.6267 172.436 19.628C172.436 17.8427 172.548 16.3087 172.774 15.026C172.999 13.726 173.354 12.6427 173.84 11.776C174.342 10.9093 174.984 10.242 175.764 9.774C176.561 9.306 177.523 8.994 178.65 8.838C178.979 8.786 179.404 8.74267 179.924 8.708C180.444 8.656 180.972 8.604 181.51 8.552C182.064 8.48267 182.584 8.40467 183.07 8.318C183.555 8.214 183.928 8.09267 184.188 7.954V10.294ZM174.672 21.162C174.672 22.7047 175.018 23.9353 175.712 24.854C176.422 25.7553 177.48 26.206 178.884 26.206C179.49 26.206 180.045 26.128 180.548 25.972C181.068 25.7987 181.518 25.53 181.9 25.166C182.281 24.7847 182.576 24.2993 182.784 23.71C182.992 23.1207 183.096 22.41 183.096 21.578C183.096 19.914 182.732 18.7353 182.004 18.042C181.276 17.3313 180.279 16.976 179.014 16.976C177.679 16.976 176.622 17.34 175.842 18.068C175.062 18.7787 174.672 19.81 174.672 21.162ZM188.553 15H190.607V17.496C190.936 16.7333 191.491 16.0833 192.271 15.546C193.051 15.0087 194.099 14.74 195.417 14.74C197.15 14.74 198.528 15.2513 199.551 16.274C200.573 17.2967 201.085 18.9433 201.085 21.214C201.085 22.4967 200.946 23.5887 200.669 24.49C200.409 25.374 200.019 26.102 199.499 26.674C198.996 27.2287 198.381 27.636 197.653 27.896C196.925 28.156 196.093 28.286 195.157 28.286C194.065 28.286 193.137 28.0607 192.375 27.61C191.629 27.142 191.075 26.6047 190.711 25.998V32.68H188.553V15ZM190.711 22.046C190.711 23.398 191.083 24.4553 191.829 25.218C192.591 25.9633 193.588 26.336 194.819 26.336C196.24 26.336 197.271 25.9547 197.913 25.192C198.571 24.4293 198.901 23.1467 198.901 21.344C198.901 20.4773 198.805 19.7493 198.615 19.16C198.424 18.5533 198.147 18.068 197.783 17.704C197.436 17.34 197.011 17.08 196.509 16.924C196.006 16.768 195.451 16.69 194.845 16.69C193.493 16.69 192.47 17.054 191.777 17.782C191.101 18.4927 190.745 19.498 190.711 20.798V22.046ZM204.193 28V15H206.351V24.672L213.683 15H215.581V28H213.423V18.25L206.351 27.688L206.117 28H204.193ZM219.732 15H221.89V20.434H224.23L228.312 15H230.782L226.024 21.136L231.64 28H228.91L224.23 22.28H221.89V28H219.732V15ZM234.438 15.988C234.872 15.6587 235.461 15.3727 236.206 15.13C236.969 14.87 237.853 14.74 238.858 14.74C239.69 14.74 240.436 14.818 241.094 14.974C241.753 15.13 242.308 15.39 242.758 15.754C243.226 16.118 243.582 16.6033 243.824 17.21C244.067 17.7993 244.188 18.536 244.188 19.42V28H242.134V25.79C241.788 26.518 241.224 27.1073 240.444 27.558C239.682 27.9913 238.78 28.208 237.74 28.208C236.44 28.208 235.4 27.87 234.62 27.194C233.84 26.518 233.45 25.5127 233.45 24.178C233.45 23.4673 233.572 22.878 233.814 22.41C234.074 21.9247 234.438 21.5433 234.906 21.266C235.374 20.9713 235.946 20.772 236.622 20.668C237.298 20.5467 238.07 20.486 238.936 20.486H242.03V19.446C242.03 18.8913 241.952 18.432 241.796 18.068C241.64 17.704 241.424 17.418 241.146 17.21C240.869 16.9847 240.531 16.8287 240.132 16.742C239.751 16.6553 239.326 16.612 238.858 16.612C237.836 16.612 236.952 16.8373 236.206 17.288C235.478 17.7387 234.889 18.328 234.438 19.056V15.988ZM238.286 26.206C238.945 26.206 239.5 26.1107 239.95 25.92C240.418 25.7293 240.8 25.504 241.094 25.244C241.389 24.9667 241.606 24.6807 241.744 24.386C241.9 24.0913 241.996 23.8313 242.03 23.606V22.202H239.014C237.836 22.202 236.978 22.3233 236.44 22.566C235.92 22.8087 235.66 23.3027 235.66 24.048C235.66 24.6893 235.877 25.2093 236.31 25.608C236.744 26.0067 237.402 26.206 238.286 26.206Z" fill="#21A038"/>
</g>
<defs>
<linearGradient id="paint0_linear" x1="4.63838" y1="28.5317" x2="0.587332" y2="16.9733" gradientUnits="userSpaceOnUse">
<stop offset="0.144" stop-color="#F2E913"/>
<stop offset="0.304" stop-color="#E7E518"/>
<stop offset="0.582" stop-color="#CADB26"/>
<stop offset="0.891" stop-color="#A3CD39"/>
</linearGradient>
<linearGradient id="paint1_linear" x1="6.16777" y1="4.51398" x2="16.4534" y2="0.634587" gradientUnits="userSpaceOnUse">
<stop offset="0.059" stop-color="#0FA8E0"/>
<stop offset="0.539" stop-color="#0099F9"/>
<stop offset="0.923" stop-color="#0291EB"/>
</linearGradient>
<linearGradient id="paint2_linear" x1="16.0726" y1="30.6555" x2="28.3275" y2="27.9243" gradientUnits="userSpaceOnUse">
<stop offset="0.123" stop-color="#A3CD39"/>
<stop offset="0.285" stop-color="#86C339"/>
<stop offset="0.869" stop-color="#21A038"/>
</linearGradient>
<linearGradient id="paint3_linear" x1="16.3624" y1="2.51463" x2="26.5598" y2="5.61528" gradientUnits="userSpaceOnUse">
<stop offset="0.057" stop-color="#0291EB"/>
<stop offset="0.79" stop-color="#0C8ACB"/>
</linearGradient>
<linearGradient id="paint4_linear" x1="5.43959" y1="29.0674" x2="16.3857" y2="33.1082" gradientUnits="userSpaceOnUse">
<stop offset="0.132" stop-color="#F2E913"/>
<stop offset="0.298" stop-color="#EBE716"/>
<stop offset="0.531" stop-color="#D9E01F"/>
<stop offset="0.802" stop-color="#BBD62D"/>
<stop offset="0.983" stop-color="#A3CD39"/>
</linearGradient>
<linearGradient id="paint5_linear" x1="2.98939" y1="17.479" x2="7.37024" y2="6.2296" gradientUnits="userSpaceOnUse">
<stop offset="0.07" stop-color="#A3CD39"/>
<stop offset="0.26" stop-color="#81C55F"/>
<stop offset="0.922" stop-color="#0FA8E0"/>
</linearGradient>
<clipPath id="clip0">
<rect width="246.926" height="34" fill="white"/>
</clipPath>
</defs>
</svg>
