<svg xmlns="http://www.w3.org/2000/svg" xmlns:xlink="http://www.w3.org/1999/xlink" width="246.926" height="34" viewBox="0 0 246.926 34">
  <defs>
    <linearGradient id="linear-gradient" x1="0.591" y1="0.962" x2="0.385" y2="-0.002" gradientUnits="objectBoundingBox">
      <stop offset="0.144" stop-color="#f2e913"/>
      <stop offset="0.304" stop-color="#e7e518"/>
      <stop offset="0.582" stop-color="#cadb26"/>
      <stop offset="0.891" stop-color="#a3cd39"/>
    </linearGradient>
    <linearGradient id="linear-gradient-2" x1="0.087" y1="0.582" x2="0.946" y2="0.389" gradientUnits="objectBoundingBox">
      <stop offset="0.059" stop-color="#0fa8e0"/>
      <stop offset="0.539" stop-color="#0099f9"/>
      <stop offset="0.923" stop-color="#0291eb"/>
    </linearGradient>
    <linearGradient id="linear-gradient-3" x1="-0.02" y1="0.569" x2="0.951" y2="0.44" gradientUnits="objectBoundingBox">
      <stop offset="0.123" stop-color="#a3cd39"/>
      <stop offset="0.285" stop-color="#86c339"/>
      <stop offset="0.869" stop-color="#21a038"/>
    </linearGradient>
    <linearGradient id="linear-gradient-4" x1="-0.077" y1="0.405" x2="0.924" y2="0.58" gradientUnits="objectBoundingBox">
      <stop offset="0.057" stop-color="#0291eb"/>
      <stop offset="0.79" stop-color="#0c8acb"/>
    </linearGradient>
    <linearGradient id="linear-gradient-5" x1="0.078" y1="0.401" x2="1.001" y2="0.621" gradientUnits="objectBoundingBox">
      <stop offset="0.132" stop-color="#f2e913"/>
      <stop offset="0.298" stop-color="#ebe716"/>
      <stop offset="0.531" stop-color="#d9e01f"/>
      <stop offset="0.802" stop-color="#bbd62d"/>
      <stop offset="0.983" stop-color="#a3cd39"/>
    </linearGradient>
    <linearGradient id="linear-gradient-6" x1="0.359" y1="1.038" x2="0.607" y2="0.074" gradientUnits="objectBoundingBox">
      <stop offset="0.07" stop-color="#a3cd39"/>
      <stop offset="0.26" stop-color="#81c55f"/>
      <stop offset="0.922" stop-color="#0fa8e0"/>
    </linearGradient>
  </defs>
  <g id="Page-3" transform="translate(-0.016 -0.044)">
    <g id="_1366_--премьер" data-name="(1366)--премьер" transform="translate(0.016 0.044)">
      <g id="portal_header">
        <g id="premier_logo" transform="translate(0 0)">
          <path id="Премьер" d="M64.568,22.019V5.705H75.751V22.019H78.12V3.6H62.2V22.019ZM85.04,26.756V19.993a5.094,5.094,0,0,0,4.5,2.316c3.763,0,6-1.974,6-7.157,0-4.6-2.237-6.552-5.736-6.552-2.658,0-4.21,1.263-4.868,2.789V8.863H82.856V26.756Zm4.158-6.42c-2.473,0-4.158-1.605-4.158-4.342V14.731c.053-2.631,1.447-4.158,4.184-4.158,2.473,0,4.1,1.184,4.1,4.71C93.329,18.941,92.092,20.335,89.2,20.335Zm15.051,1.947c2.579,0,4.184-.789,4.842-1.605V18.125c-.71,1.263-2.316,2.263-4.842,2.263-2.579,0-4.1-1.316-4.315-4.158h10.078V14.81c0-3.894-2.184-6.21-5.815-6.21-3.71,0-6.5,2.237-6.5,6.789C97.7,19.993,100.091,22.283,104.249,22.283Zm3.579-7.92H99.96c.289-2.552,1.763-3.868,4.236-3.868,2.079,0,3.631,1.316,3.631,3.842Zm7.578,7.657V12.073l4.5,6.578h.974l4.473-6.578v9.946h2.184V8.863H125.3l-4.815,6.973L115.59,8.863h-2.368V22.019Zm21.209,0c4.131,0,5.763-1.237,5.789-4.631,0-3.447-1.868-4.289-5.447-4.289H133.93V8.863h-2.184V22.019Zm-.026-1.947H133.93V15.046h2.789c2.631,0,3.447.368,3.5,2.316C140.219,19.546,139.114,20.072,136.588,20.072Zm14.525,2.21c2.579,0,4.184-.789,4.842-1.605V18.125c-.71,1.263-2.316,2.263-4.842,2.263-2.579,0-4.1-1.316-4.315-4.158h10.078V14.81c0-3.894-2.184-6.21-5.815-6.21-3.71,0-6.5,2.237-6.5,6.789C144.561,19.993,146.956,22.283,151.113,22.283Zm3.579-7.92h-7.868c.289-2.552,1.763-3.868,4.236-3.868,2.079,0,3.631,1.316,3.631,3.842Zm7.578,12.394V19.993a5.094,5.094,0,0,0,4.5,2.316c3.763,0,6-1.974,6-7.157,0-4.6-2.237-6.552-5.736-6.552-2.658,0-4.21,1.263-4.868,2.789V8.863h-2.079V26.756Zm4.158-6.42c-2.473,0-4.158-1.605-4.158-4.342V14.731c.053-2.631,1.447-4.158,4.184-4.158,2.473,0,4.1,1.184,4.1,4.71C170.559,18.941,169.322,20.335,166.427,20.335Z" transform="translate(74.157 4.198)" fill="#21a038"/>
          <g id="logo_sber_rus" transform="translate(0 0)">
            <g id="Group" transform="translate(45.269 6.392)">
              <path id="Path" d="M30.513,3.6,35.075.158H19.805V20.834H35.075V17.391H24.163V12.1H33.47V8.655H24.163V3.6Z" transform="translate(23.575 0.113)" fill="#21a038"/>
              <path id="Shape" d="M19.8,8.218H14.5V3.6h8.465L27.529.158H10.144V20.834h9.1c5.1,0,8.03-2.367,8.03-6.5C27.272,10.392,24.619,8.218,19.8,8.218Zm-.758,9.173H14.5V11.659h4.544c2.766,0,4.054.958,4.054,2.865C23.1,16.473,21.735,17.391,19.046,17.391Z" transform="translate(12.051 0.113)" fill="#21a038"/>
              <path id="Shape-2" data-name="Shape" d="M36.932.158H28.619V20.834h4.358V14.977h3.956c5.305,0,8.6-2.856,8.6-7.42S42.238.158,36.932.158Zm-.093,11.377H32.976V3.6h3.862c2.792,0,4.33,1.409,4.33,3.967S39.632,11.534,36.839,11.534Z" transform="translate(34.087 0.113)" fill="#21a038"/>
              <path id="Path-2" data-name="Path" d="M14.736,16.5a7.657,7.657,0,0,1-3.761.965A6.58,6.58,0,0,1,4.2,10.643a6.58,6.58,0,0,1,6.78-6.826,6.539,6.539,0,0,1,3.963,1.27l3.125-2.358h0l-.207-.185A10.324,10.324,0,0,0,10.806.034a10.989,10.989,0,0,0-7.728,2.94A10.367,10.367,0,0,0,.022,10.53,10.723,10.723,0,0,0,3.067,18.2a10.774,10.774,0,0,0,7.711,3.057,10.255,10.255,0,0,0,7.744-3.162L15.7,15.964Z" transform="translate(-0.022 -0.034)" fill="#21a038"/>
            </g>
            <g id="Group-2" data-name="Group">
              <path id="Path-3" data-name="Path" d="M25.025,3.057a16.9,16.9,0,0,1,2.061,3.38L11.417,17.852,4.872,13.795V8.915l6.545,4.057Z" transform="translate(5.777 3.55)" fill="#21a038"/>
              <g id="Path-4" data-name="Path" transform="translate(0 0)">
                <path id="Контур_604" data-name="Контур 604" d="M3.987,8.258c0-.219.006-.437.017-.654l-3.967-.2c-.014.281-.022.565-.022.849A16.847,16.847,0,0,0,5.052,20.279L7.865,17.5A12.954,12.954,0,0,1,3.987,8.258Z" transform="translate(-0.016 8.742)" fill="url(#linear-gradient)"/>
                <path id="Контур_605" data-name="Контур 605" d="M14.471,3.971c.222,0,.442.008.661.018l.2-3.924c-.284-.014-.571-.021-.859-.021A17.237,17.237,0,0,0,2.312,5.023L5.125,7.8A13.26,13.26,0,0,1,14.471,3.971Z" transform="translate(2.723 -0.044)" fill="url(#linear-gradient-2)"/>
                <path id="Контур_606" data-name="Контур 606" d="M8.324,15.844c-.222,0-.442-.006-.661-.017l-.2,3.922c.284.014.571.021.859.021a17.237,17.237,0,0,0,12.159-4.979L17.67,12.01A13.259,13.259,0,0,1,8.324,15.844Z" transform="translate(8.87 14.23)" fill="url(#linear-gradient-3)"/>
              </g>
              <g id="Path-5" data-name="Path">
                <path id="Контур_607" data-name="Контур 607" d="M15.312,6.253l3.344-2.437A17.246,17.246,0,0,0,7.857.044h0V3.971A13.247,13.247,0,0,1,15.312,6.253Z" transform="translate(9.337 -0.044)" fill="url(#linear-gradient-4)"/>
                <path id="Контур_608" data-name="Контур 608" d="M20.229,9.453a16.9,16.9,0,0,0-.275-3.045l-3.7,2.7c0,.116,0,.232,0,.349a12.976,12.976,0,0,1-4.356,9.69l2.669,2.916A16.866,16.866,0,0,0,20.229,9.453Z" transform="translate(14.161 7.547)" fill="#21a038"/>
                <path id="Контур_609" data-name="Контур 609" d="M14.793,16.1a13.259,13.259,0,0,1-9.8-4.307l-2.95,2.638a17.239,17.239,0,0,0,12.751,5.595V16.1Z" transform="translate(2.402 13.973)" fill="url(#linear-gradient-5)"/>
                <path id="Контур_610" data-name="Контур 610" d="M8.343,4.964,5.675,2.048A16.872,16.872,0,0,0,.016,14.653H3.988A12.972,12.972,0,0,1,8.343,4.964Z" transform="translate(-0.016 2.347)" fill="url(#linear-gradient-6)"/>
              </g>
            </g>
          </g>
        </g>
      </g>
    </g>
  </g>
</svg>
