<svg xmlns="http://www.w3.org/2000/svg" width="502.102" height="163.478" viewBox="0 0 502.102 163.478"><g transform="translate(0 0)"><g transform="translate(145.288 49.22)"><path d="M301.974,104.056V91.485a30.269,30.269,0,0,0,6.231.766c5.465,0,9.618-3.717,12.46-11.477l.111-.219L300.729,37.117v4.965a23.173,23.173,0,0,0-6.1-.242c-5.9.56-10.979,3.463-13.357,8.136V79.79H266.081V27.326h13.443V36.2c3.716-5.793,9.508-8.878,21.2-8.878h11.3l15.3,35.413L340.34,27.326h15.738L332.8,86.13c-5.9,14.646-14.1,19.128-22.625,19.128A35.42,35.42,0,0,1,301.974,104.056Zm-96.881-50.5c0-19.783,15.193-27.762,27-27.762,21.751,0,28.746,17.16,25.249,32.682H220.395c1.75,7.651,9.837,10.821,18.473,10.821a39.375,39.375,0,0,0,15.849-3.17V78.042c-4.919,2.076-11.367,3.28-19.238,3.28C218.865,81.321,205.093,71.812,205.093,53.558Zm15.193-4.918h23.391c.546-3.608-1.531-11.259-11.039-11.259C226.188,37.382,220.505,41.426,220.286,48.641ZM63.8,53.558c0-19.783,15.192-27.762,27-27.762,21.751,0,28.747,17.16,25.25,32.682H79.1C80.847,66.128,88.935,69.3,97.57,69.3a39.378,39.378,0,0,0,15.849-3.17V78.042c-4.918,2.076-11.367,3.28-19.237,3.28C77.568,81.321,63.8,71.812,63.8,53.558Zm15.192-4.918H102.38c.545-3.608-1.532-11.259-11.04-11.259C84.891,37.382,79.208,41.426,78.988,48.641ZM.437,74.435V58.805a49,49,0,0,0,27.106,8.088c8.854,0,14.318-1.859,14.318-7.324C41.862,45.251,0,50.606,0,23.5,0,8.744,12.9,1.749,27.981,1.749c9.072,0,18.253,2.186,24.812,5.9v15.3c-6.449-4.591-15.083-6.886-23.609-6.775-8.307.108-12.461,2.4-12.461,7.1,0,13.226,41.864,8.307,41.864,35.524,0,17.16-13.773,22.516-29.84,22.516A58.641,58.641,0,0,1,.437,74.435ZM167.342,79.79,145.7,27.327h16.177l13.444,36.4,13.444-36.4h16.177L183.3,79.79Zm-42.253,0V0h15.193V79.79Z" stroke="rgba(0,0,0,0)" stroke-miterlimit="10" stroke-width="1"/></g><path d="M772.651,507.6h32.318a48.949,48.949,0,0,0-48.948-48.95v32.317a16.631,16.631,0,0,1,16.63,16.633" transform="translate(-707.072 -458.654)" fill="#eb4f6a"/><path d="M804.969,507.6" transform="translate(-707.072 -458.654)" fill="#ffb400"/><path d="M772.651,507.6Z" transform="translate(-707.072 -458.654)" fill="#ffb400"/><path d="M739.389,507.6h0Z" transform="translate(-707.072 -458.654)" fill="#ffb400"/><path d="M802.066,556.552a49,49,0,0,0-46.045-32.317A16.632,16.632,0,0,1,739.389,507.6H707.072a48.955,48.955,0,0,0,48.949,48.948,16.631,16.631,0,0,1,16.631,16.632h32.317a48.852,48.852,0,0,0-2.9-16.632" transform="translate(-707.072 -458.654)" fill="#f4b63f"/><path d="M739.389,573.184H707.072a48.948,48.948,0,0,0,48.948,48.948V589.815a16.631,16.631,0,0,1-16.631-16.631" transform="translate(-707.072 -458.654)" fill="#61d2a5"/></g></svg>